<svg width="197" height="29" viewBox="0 0 197 29" fill="none" xmlns="http://www.w3.org/2000/svg">
<g clip-path="url(#clip0_1739_8395)">
<mask id="mask0_1739_8395" style="mask-type:luminance" maskUnits="userSpaceOnUse" x="0" y="0" width="39" height="29">
<path d="M38.4394 0H0.25V29H38.4394V0Z" fill="white"/>
</mask>
<g mask="url(#mask0_1739_8395)">
<path d="M30.5902 25.9756C29.2324 25.0717 28.4204 23.5734 28.4198 21.971C28.4181 21.1208 28.6479 20.2857 29.0863 19.5507C26.4717 18.7157 25.0473 15.9737 25.9044 13.4268C26.436 11.8469 27.7605 10.642 29.4148 10.2334C28.8362 7.90293 30.0907 5.50997 32.3673 4.59962C29.5561 1.6615 25.6175 -0.00462011 21.4948 9.62296e-06C13.275 9.62296e-06 6.61133 6.49262 6.61133 14.5015C6.61133 22.5103 13.275 29 21.4948 29C24.7872 29.0047 27.9874 27.941 30.5902 25.9756Z" fill="white"/>
<path d="M38.3484 9.07487C37.7586 8.01641 34.3867 8.31614 29.6237 9.63912C29.5809 9.65068 29.5506 9.68714 29.5477 9.72998V9.74908C29.5435 9.80521 29.5863 9.85381 29.6439 9.85845C29.6552 9.85903 29.6665 9.85845 29.6771 9.85555C32.7865 9.07023 34.8951 8.92962 35.2823 9.62404C35.8936 10.7178 32.0078 13.5709 26.0284 16.6202C25.9851 16.6421 25.9423 16.6641 25.899 16.685C25.5913 16.8424 25.2777 16.9998 24.9581 17.1566C24.7205 17.2752 24.4734 17.395 24.2269 17.5137C24.1759 17.5386 24.1248 17.5623 24.0725 17.5884L23.9989 17.6237C23.8563 17.6919 23.712 17.7608 23.567 17.8285L23.336 17.9379C23.1917 18.0062 23.0462 18.0739 22.9 18.1422L22.6583 18.2539C22.5074 18.3239 22.3566 18.3928 22.2039 18.4628C22.1225 18.4998 22.0406 18.5363 21.9592 18.5739C21.8036 18.6445 21.6474 18.7145 21.4905 18.7846L21.2345 18.9003C21.0748 18.9709 20.9144 19.0427 20.7523 19.1127L20.5497 19.2018L20.4856 19.2296C20.3145 19.3042 20.144 19.3777 19.9747 19.4507C19.8791 19.4923 19.7847 19.5322 19.6903 19.5727L19.1402 19.8042L18.8302 19.9345C18.6229 20.0207 18.4144 20.1081 18.2101 20.1891L17.8614 20.3309C17.6239 20.4275 17.3863 20.5224 17.1487 20.6156L16.7068 20.7892C16.3694 20.9212 16.0362 21.049 15.7071 21.1735C15.4197 21.2817 15.1369 21.3859 14.856 21.4883C14.625 21.5734 14.3945 21.6561 14.1676 21.7371C13.7174 21.898 13.2731 22.0525 12.8407 22.2001C12.7884 22.2175 12.7367 22.236 12.6845 22.2522C12.3887 22.3517 12.097 22.4484 11.8096 22.5416C11.4793 22.6475 11.1556 22.7482 10.8384 22.8448C10.681 22.8928 10.526 22.9386 10.3716 22.9848C6.29582 24.1735 3.4353 24.5173 2.97616 23.6996C2.54792 22.9293 4.33396 21.2956 7.50277 19.3349C7.54431 19.31 7.56276 19.2602 7.54609 19.2151C7.54256 19.2035 7.53721 19.1914 7.53364 19.1798C7.51463 19.1271 7.45583 19.0988 7.4012 19.1173C7.39465 19.1196 7.3881 19.1225 7.38219 19.126C2.53901 21.971 -0.308442 24.4797 0.341944 25.6388C1.04223 26.89 5.64307 26.2396 11.8464 24.2349C12.0994 24.1533 12.3548 24.0688 12.6126 23.9837C13.7952 23.5885 15.0306 23.1469 16.3035 22.6619C16.547 22.5694 16.7941 22.4744 17.0406 22.3778C17.372 22.2493 17.7058 22.1179 18.0414 21.9831C18.1935 21.9217 18.3467 21.8604 18.5005 21.7973C18.7488 21.6966 18.9989 21.5942 19.2513 21.4906L19.6267 21.3338C19.8381 21.2458 20.0496 21.1555 20.2628 21.0658C20.3721 21.0201 20.482 20.9727 20.5919 20.9258C20.7867 20.8424 20.9815 20.758 21.1769 20.6729L21.1936 20.6654L21.4769 20.5421C21.6616 20.4605 21.8446 20.3801 22.0269 20.2984C22.1225 20.2557 22.2188 20.2134 22.3132 20.1706C22.4825 20.0959 22.6494 20.0201 22.8157 19.9443L23.0836 19.8228L23.5754 19.5959C23.5801 19.5942 23.5849 19.5918 23.589 19.5889L23.8355 19.4732C24.2317 19.2886 24.6225 19.1028 25.0092 18.9171C25.34 18.7579 25.6661 18.5993 25.9874 18.4408L26.3652 18.2521C34.0903 14.3938 39.1918 10.5853 38.3484 9.07487Z" fill="white"/>
</g>
<mask id="mask1_1739_8395" style="mask-type:luminance" maskUnits="userSpaceOnUse" x="44" y="6" width="153" height="17">
<path d="M196.25 6.67917H44.6816V22.3239H196.25V6.67917Z" fill="white"/>
</mask>
<g mask="url(#mask1_1739_8395)">
<path d="M52.5765 18.772C49.8835 18.772 48.1531 17.0187 48.1531 14.3733C48.1531 11.7279 49.8886 9.98058 52.5765 9.98058C54.1224 9.98058 55.4247 10.6557 56.0968 11.7947L59.0921 10.1034C57.7737 8.01024 55.3341 6.68274 52.5765 6.68274C47.9988 6.68274 44.6816 10.0223 44.6816 14.3757C44.6816 18.729 47.9988 22.0758 52.5765 22.0758C55.3549 22.0758 57.7907 20.7459 59.0921 18.6515L56.0968 16.9603C55.448 18.0969 54.1224 18.772 52.5765 18.772Z" fill="white"/>
<path d="M67.7424 6.68274C63.3803 6.68274 59.8438 10.1285 59.8438 14.3793C59.8438 18.6301 63.3803 22.0758 67.7424 22.0758C72.105 22.0758 75.6449 18.7362 75.6449 14.3757C75.6449 10.0152 72.1097 6.68274 67.7424 6.68274ZM67.7424 18.7744C65.2714 18.7744 63.319 17.0211 63.319 14.3757C63.319 11.7303 65.2773 9.98294 67.7424 9.98294C70.2075 9.98294 72.1735 11.7362 72.1735 14.3757C72.1735 17.0152 70.2198 18.772 67.7424 18.772V18.7744Z" fill="white"/>
<path d="M83.6736 6.97375H77.6035V21.78H83.6782C87.8644 21.78 91.0557 18.5597 91.0557 14.3733C91.0557 10.1869 87.8597 6.97375 83.6736 6.97375ZM83.6736 18.5191H81.0699V10.2334H83.6736C86.0604 10.2334 87.7054 11.8364 87.7054 14.3733C87.7054 16.9101 86.0604 18.5191 83.6736 18.5191Z" fill="white"/>
<path d="M96.4749 18.5191V15.8952H101.9V12.6749H96.4749V10.2334H102.439V6.97375H93.0039V21.78H102.551V18.5191H96.4749Z" fill="white"/>
<path d="M120.994 18.729C121.62 17.7701 122.089 16.7205 122.379 15.6185L119.475 14.0155C119.322 14.8134 119.083 15.5922 118.761 16.3413L115.96 13.313C115.282 12.5974 114.765 12.0451 114.765 11.2198C114.765 10.5041 115.352 9.97817 116.22 9.97817C117.199 9.97817 117.801 10.5853 118.193 11.5812L121.169 9.91138C120.23 7.73589 118.368 6.67917 116.171 6.67917C113.267 6.67917 111.292 8.52071 111.292 11.0099C111.277 11.8352 111.495 12.6487 111.923 13.3619C110.415 14.2743 109.497 15.8809 109.494 17.6115C109.494 20.4012 111.789 22.0722 114.918 22.0722C116.319 22.0925 117.693 21.6846 118.844 20.9057L120.191 22.3239L122.907 20.8032L120.994 18.729ZM115.198 18.9807C113.658 18.9807 113.007 18.2448 113.007 17.2489C113 16.6072 113.297 15.9977 113.813 15.5982L113.935 15.7282L116.713 18.6468C116.244 18.8793 115.724 18.995 115.198 18.9831V18.9807Z" fill="white"/>
<path d="M137.308 18.772C134.615 18.772 132.877 17.0187 132.877 14.3733C132.877 11.7279 134.612 9.98057 137.308 9.98057C138.847 9.98057 140.148 10.6556 140.821 11.7947L143.822 10.1034C142.499 8.01023 140.07 6.67917 137.312 6.67917C132.735 6.67917 129.41 10.0187 129.41 14.3721C129.41 18.7255 132.735 22.0722 137.312 22.0722C140.091 22.0722 142.519 20.7423 143.822 18.648L140.825 16.9567C140.169 18.0957 138.847 18.7708 137.308 18.7708V18.772Z" fill="white"/>
<path d="M153.738 6.97375H149.308L144.143 21.78H147.943L148.698 19.4542H154.34L155.102 21.78H158.897L153.738 6.97375ZM149.741 16.2768L151.52 10.8477L153.304 16.2768H149.741Z" fill="white"/>
<path d="M167.138 14.1884L172.261 6.97375H168.314L163.663 13.4048V6.97375H160.191V21.78H163.663V14.9255L168.527 21.78H172.474L167.138 14.1884Z" fill="white"/>
<path d="M177.251 18.5191V15.8952H182.675V12.6749H177.251V10.2334H183.214V6.97375H173.779V21.78H183.327V18.5191H177.251Z" fill="white"/>
<path d="M191.354 12.9408C188.988 12.2383 188.621 11.7744 188.621 11.0957C188.621 10.4994 189.167 9.97697 190.252 9.97697C191.638 9.97697 192.359 10.6318 192.877 11.6897L195.814 10.0199C194.702 7.83726 192.754 6.67917 190.257 6.67917C187.633 6.67917 185.155 8.32865 185.155 11.1804C185.155 14.0322 187.366 15.0746 189.627 15.6876C191.909 16.3019 192.777 16.6561 192.777 17.5709C192.777 18.1363 192.364 18.7708 190.712 18.7708C189.059 18.7708 188.067 17.9455 187.521 16.7253L184.525 18.4165C185.372 20.592 187.415 22.0722 190.6 22.0722C193.785 22.0722 196.249 20.381 196.249 17.5232C196.24 14.3924 193.658 13.6147 191.354 12.9396V12.9408Z" fill="white"/>
</g>
</g>
<defs>
<clipPath id="clip0_1739_8395">
<rect width="196" height="29" fill="white" transform="translate(0.25)"/>
</clipPath>
</defs>
</svg>
