<svg width="117" height="23" viewBox="0 0 117 23" fill="none" xmlns="http://www.w3.org/2000/svg">
<g clip-path="url(#clip0_1741_8493)">
<path d="M32.8125 20.2359V2.7825H36.5739V20.2359H32.8125Z" fill="white"/>
<path d="M48.5075 13.3883C48.5075 12.3067 48.4596 11.555 48.3639 11.1287C48.2682 10.7071 48.0673 10.4321 47.7658 10.3037C47.4643 10.1754 46.9379 10.1158 46.177 10.1158C45.4161 10.1158 44.8562 10.2258 44.4973 10.4458C44.1336 10.6658 43.8991 11.0142 43.7842 11.4862C43.6694 11.9583 43.6119 12.6458 43.6119 13.5396V20.2358H40.0898V7.29706H43.4014L43.5067 8.89668H43.7173C44.0522 8.26874 44.5547 7.81499 45.2247 7.52624C45.8946 7.23749 46.7512 7.09543 47.7945 7.09543C48.9765 7.09543 49.8762 7.28331 50.4983 7.65456C51.1156 8.02581 51.5272 8.56668 51.7281 9.27706C51.9291 9.98749 52.0344 10.9408 52.0344 12.1417V20.2358H48.5123V13.3883H48.5075Z" fill="white"/>
<path d="M55.3318 20.0342V17.0138C57.5044 17.2154 59.3563 17.3163 60.8924 17.3163C61.7923 17.3163 62.4958 17.2796 62.9982 17.2017C63.5007 17.1237 63.8786 16.9954 64.1226 16.8075C64.3523 16.6379 64.4959 16.4363 64.5579 16.1979C64.6205 15.9596 64.6492 15.625 64.6492 15.185C64.6492 14.6946 64.6154 14.3371 64.5436 14.1079C64.4718 13.8787 64.3334 13.7092 64.1181 13.5992C63.9073 13.4892 63.553 13.4113 63.0603 13.3608L59.1651 12.93C57.997 12.7788 57.0976 12.4854 56.4611 12.0546C55.8247 11.6238 55.3892 11.0646 55.1499 10.3817C54.9106 9.69875 54.791 8.84625 54.791 7.83332C54.791 6.34375 55.0734 5.21625 55.638 4.44625C56.2027 3.67625 56.9636 3.17208 57.9161 2.93833C58.8682 2.7 60.0982 2.58542 61.5959 2.58542C63.9073 2.58542 65.8885 2.755 67.5297 3.09417V6.03669C65.8167 5.81667 64.0939 5.70667 62.3666 5.70667C60.7776 5.70667 59.725 5.835 59.2127 6.08707C58.9302 6.22457 58.7533 6.39875 58.6816 6.61875C58.6098 6.83875 58.5765 7.16875 58.5765 7.60875C58.5765 8.1175 58.6098 8.47957 58.6816 8.69957C58.7533 8.91957 58.9067 9.07544 59.1456 9.16707C59.385 9.25875 59.787 9.34125 60.3515 9.41L64.539 9.89125C65.3527 9.97832 66.0223 10.1342 66.5535 10.3587C67.0847 10.5879 67.4964 10.9638 67.7979 11.4863C68.224 12.215 68.4342 13.3379 68.4342 14.8596C68.4342 16.4683 68.1712 17.6738 67.64 18.4896C67.1088 19.3054 66.4007 19.8325 65.5055 20.0754C64.6154 20.3183 63.4433 20.4421 61.9979 20.4421C59.4137 20.4421 57.1885 20.3046 55.3318 20.0342Z" fill="white"/>
<path d="M71.3203 4.46V1.38916H74.9479V4.46H71.3203ZM71.349 20.2359V7.29706H74.9002V20.2359H71.349Z" fill="white"/>
<path d="M78.1777 1.38916H81.7284V20.2404H78.1777V1.38916Z" fill="white"/>
<path d="M84.9785 4.46V1.38916H88.6055V4.46H84.9785ZM85.0021 20.2359V7.29706H88.5533V20.2359H85.0021Z" fill="white"/>
<path d="M99.2442 20.3412C98.5218 20.41 97.8229 20.4421 97.1533 20.4421C95.4208 20.4421 94.1528 20.1992 93.3391 19.7179C92.5254 19.2367 92.0039 18.5446 91.7742 17.6371C91.5445 16.7342 91.4297 15.4325 91.4297 13.7412C91.4297 12.1325 91.5543 10.8767 91.7984 9.95999C92.047 9.04793 92.5782 8.34206 93.4011 7.84249C94.2246 7.34293 95.4541 7.09543 97.0959 7.09543C97.7655 7.09543 98.4597 7.13206 99.1724 7.20999C99.8856 7.28793 100.493 7.38418 100.986 7.50331V10.1158C100.068 9.96456 99.0771 9.88668 98.0193 9.88668C97.0815 9.88668 96.4114 9.98749 96.0048 10.1892C95.5977 10.3908 95.3301 10.7529 95.1957 11.2662C95.0619 11.7842 94.9947 12.6137 94.9947 13.7642C94.9947 14.9329 95.0665 15.7717 95.2054 16.2896C95.3444 16.8075 95.6264 17.1604 96.0381 17.3529C96.4544 17.55 97.1292 17.6462 98.067 17.6462C98.7038 17.6462 99.7088 17.5775 101.087 17.4446V20.0571C100.589 20.1808 99.9718 20.2725 99.2442 20.3412Z" fill="white"/>
<path d="M105.459 19.8692C104.603 19.4887 104.057 18.8608 103.818 17.9808C103.578 17.1008 103.459 15.6892 103.459 13.7458C103.459 11.8025 103.578 10.3954 103.818 9.51999C104.057 8.64918 104.598 8.02581 105.445 7.65456C106.292 7.28331 107.699 7.09543 109.656 7.09543C111.618 7.09543 113.02 7.28331 113.867 7.65456C114.714 8.02581 115.26 8.64918 115.494 9.51999C115.734 10.3908 115.853 11.7979 115.853 13.7458C115.853 15.6892 115.734 17.1054 115.494 17.9808C115.255 18.8608 114.71 19.4887 113.853 19.8692C112.996 20.2496 111.599 20.4421 109.656 20.4421C107.718 20.4421 106.316 20.2496 105.459 19.8692ZM111.556 17.3987C111.901 17.2292 112.111 16.9083 112.192 16.4362C112.274 15.9642 112.312 15.0658 112.312 13.7458C112.312 12.4258 112.274 11.5367 112.192 11.0692C112.111 10.6062 111.901 10.29 111.556 10.1296C111.211 9.96918 110.58 9.88668 109.661 9.88668C108.742 9.88668 108.11 9.96918 107.766 10.1296C107.421 10.29 107.211 10.6017 107.13 11.0692C107.048 11.5321 107.01 12.4258 107.01 13.7458C107.01 15.0658 107.048 15.9596 107.13 16.4362C107.211 16.9083 107.421 17.2292 107.766 17.3987C108.11 17.5683 108.742 17.6508 109.661 17.6508C110.58 17.6508 111.211 17.5637 111.556 17.3987Z" fill="white"/>
<path d="M13.6225 11.06L26.3136 11.0371L20.2935 1.05458C20.0877 0.710833 19.7048 0.5 19.2885 0.5H7.25781L13.6225 11.06Z" fill="white"/>
<path d="M13.6225 11.9858L7.25781 22.5H19.2933C19.7096 22.5 20.0925 22.2892 20.2982 21.9454L26.3136 11.9629L13.6225 11.9858Z" fill="white"/>
<path d="M12.7844 11.5229L6.41971 0.962921L0.404332 10.9454C0.198556 11.2892 0.198556 11.7154 0.404332 12.0592L6.41971 22.0371L12.7844 11.5229Z" fill="white"/>
</g>
<defs>
<clipPath id="clip0_1741_8493">
<rect width="116" height="22" fill="white" transform="translate(0.25 0.5)"/>
</clipPath>
</defs>
</svg>
