<svg width="94" height="41" viewBox="0 0 94 41" fill="none" xmlns="http://www.w3.org/2000/svg">
<g clip-path="url(#clip0_1182_2702)">
<path fill-rule="evenodd" clip-rule="evenodd" d="M26.9886 35.9162H8.03323V18.2285L3.55502 21.1014C3.54565 21.1082 3.53806 21.1171 3.53289 21.1274C3.52773 21.1377 3.52516 21.1491 3.52541 21.1607V35.9162V40.0627C3.52541 40.0816 3.5329 40.0997 3.54623 40.113C3.55956 40.1263 3.57764 40.1338 3.59649 40.1338H22.4748L26.9886 35.9162Z" fill="#FDB728"/>
<path fill-rule="evenodd" clip-rule="evenodd" d="M22.516 35.917H8.03289L3.55469 40.1168C3.59128 40.1286 3.63064 40.1286 3.66724 40.1168H22.5101L22.516 35.917Z" fill="url(#paint0_linear_1182_2702)"/>
<path fill-rule="evenodd" clip-rule="evenodd" d="M7.85547 2.89258V8.31855L12.4048 5.23238C12.4228 5.21537 12.4334 5.19198 12.4344 5.16722V2.89258H7.87324" fill="#FDB728"/>
<path fill-rule="evenodd" clip-rule="evenodd" d="M22.5098 0.523438L0.563085 14.5978C0.552506 14.6052 0.543787 14.6149 0.537618 14.6262C0.531448 14.6375 0.527999 14.6501 0.527543 14.663V20.0712C0.526527 20.0835 0.52941 20.0959 0.535785 20.1065C0.542161 20.1171 0.551709 20.1255 0.563085 20.1304C0.574061 20.1361 0.586253 20.1391 0.598626 20.1391C0.610999 20.1391 0.623191 20.1361 0.634167 20.1304L22.5098 6.33444V0.523438Z" fill="#73A5D8"/>
<path fill-rule="evenodd" clip-rule="evenodd" d="M27.0887 3.44967L22.5098 6.33444V0.523438L27.0887 3.44967Z" fill="#26539F"/>
<path fill-rule="evenodd" clip-rule="evenodd" d="M27.0591 35.9166L22.5098 40.1283V0.523438L27.0887 3.44375L27.0591 35.9166Z" fill="url(#paint1_linear_1182_2702)"/>
</g>
<path fill-rule="evenodd" clip-rule="evenodd" d="M41.8562 15.0597C41.8562 19.1648 40.3931 21.1536 37.4155 21.1536C34.4379 21.1536 33.1031 19.1648 33.1031 15.1107C33.0147 14.2298 33.1054 13.3402 33.37 12.4949C33.6346 11.6495 34.0676 10.8656 34.6433 10.1898C35.4354 9.47546 36.4743 9.09192 37.5438 9.11889C38.0914 9.09599 38.6376 9.18868 39.1464 9.39085C39.6552 9.59303 40.1151 9.90009 40.4957 10.2918C41.5339 11.656 42.0193 13.3573 41.8562 15.0597ZM39.2893 15.2382C39.315 12.408 38.7246 10.9547 37.4925 10.9547C36.2604 10.9547 35.7213 12.357 35.7213 15.1872C35.7213 18.0174 36.3117 19.3688 37.5438 19.3688C38.7759 19.3688 39.315 17.9409 39.315 15.1872L39.2893 15.2382ZM50.1985 20.6436C50.2021 20.6792 50.1981 20.7151 50.1869 20.7491C50.1756 20.783 50.1572 20.8142 50.133 20.8407C50.1088 20.8671 50.0793 20.8882 50.0464 20.9026C50.0134 20.917 49.9778 20.9243 49.9418 20.9241H48.2477C48.2119 20.9277 48.1757 20.9237 48.1416 20.9125C48.1074 20.9013 48.076 20.8831 48.0493 20.8591C48.0227 20.835 48.0015 20.8057 47.987 20.773C47.9725 20.7403 47.9651 20.7049 47.9653 20.6691V15.5697C47.9653 14.6518 47.606 14.1673 46.9386 14.1673C46.3676 14.2303 45.8343 14.4816 45.4241 14.8813V20.6436C45.4241 20.718 45.3944 20.7894 45.3414 20.842C45.2885 20.8946 45.2167 20.9241 45.1418 20.9241H43.4476C43.4118 20.9277 43.3757 20.9237 43.3415 20.9125C43.3073 20.9013 43.2759 20.8831 43.2493 20.8591C43.2227 20.835 43.2014 20.8057 43.187 20.773C43.1725 20.7403 43.1651 20.7049 43.1653 20.6691V15.0597C43.1753 14.4379 43.0528 13.821 42.8059 13.2494C42.7843 13.1919 42.7843 13.1285 42.8059 13.071C42.7843 13.0134 42.7843 12.95 42.8059 12.8925L44.423 12.357H44.6027C44.8337 12.357 45.0134 12.765 45.2444 13.5299C45.9473 12.8851 46.8558 12.5061 47.8113 12.459C49.3258 12.459 50.0445 13.3514 50.0445 15.0088L50.1985 20.6436ZM58.7205 16.9465C58.7454 17.0642 58.7454 17.1858 58.7205 17.3035C58.6205 17.3366 58.5125 17.3366 58.4125 17.3035H53.6381C53.6381 18.7313 54.3312 19.4198 55.5889 19.4198C56.2885 19.4166 56.9763 19.2414 57.5911 18.9098C57.6665 18.8879 57.7467 18.8879 57.8221 18.9098C57.8221 18.9098 57.9505 18.9098 58.0018 19.0883L58.4125 20.0827C58.4321 20.1406 58.4321 20.2033 58.4125 20.2612C58.4125 20.2612 58.1558 20.5671 57.6938 20.7966C56.8756 21.1142 56.0053 21.2785 55.1269 21.2811C54.197 21.318 53.2852 21.019 52.56 20.4397C52.0935 19.9868 51.7359 19.4352 51.5137 18.826C51.2915 18.2168 51.2104 17.5657 51.2766 16.921C51.2466 15.7403 51.6686 14.5922 52.4574 13.7084C52.8036 13.3049 53.2378 12.985 53.727 12.773C54.2162 12.5609 54.7476 12.4623 55.2809 12.4845C57.5911 12.408 58.7205 13.8869 58.7205 16.9465ZM56.359 15.8247C56.3884 15.3216 56.2821 14.8199 56.051 14.3713C55.9329 14.2176 55.775 14.0984 55.5943 14.0266C55.4135 13.9548 55.2165 13.9329 55.0242 13.9634C54.8004 13.9523 54.5778 14.0009 54.3792 14.104C54.1806 14.2071 54.0134 14.361 53.8948 14.5498C53.6865 14.9451 53.5641 15.3794 53.5354 15.8247H56.359ZM68.4746 20.0572C68.4746 20.0572 68.3463 20.3632 68.0639 20.5162C67.3021 21.0096 66.4061 21.2588 65.4971 21.2301C64.7588 21.2756 64.0225 21.1131 63.3732 20.7612C62.7238 20.4094 62.1876 19.8825 61.8264 19.2413C61.1805 17.9444 60.8801 16.5048 60.9537 15.0597C60.83 13.4319 61.3348 11.8183 62.3655 10.5467C62.7272 10.1299 63.1769 9.79727 63.6827 9.57253C64.1884 9.34779 64.7378 9.23644 65.2917 9.24638C66.2052 9.28642 67.0914 9.5681 67.8586 10.0623C68.0896 10.2408 68.2179 10.3683 68.2179 10.4702C68.2179 10.5722 68.2179 10.5977 68.2179 10.5977L67.4992 11.8216C67.4878 11.8597 67.464 11.8929 67.4314 11.916C67.3989 11.9391 67.3595 11.9507 67.3195 11.9491C67.1294 11.8665 66.9486 11.764 66.7805 11.6431C66.3802 11.3217 65.8834 11.1422 65.3687 11.1332C64.0083 11.1332 63.3666 12.306 63.3666 14.7028C63.2842 15.9732 63.5225 17.244 64.0596 18.3999C64.2081 18.6835 64.4397 18.9158 64.7238 19.066C65.008 19.2162 65.3313 19.2774 65.6511 19.2413C66.2975 19.2365 66.9227 19.0115 67.4222 18.6039C67.4222 18.6039 67.4222 18.6039 67.6019 18.6039C67.7816 18.6039 67.6019 18.6039 67.7559 18.7823L68.4746 19.9552V20.0572ZM72.9923 20.6946C72.9923 20.6946 72.8383 20.9496 72.402 21.0006C72.0213 21.1256 71.6221 21.1859 71.2212 21.1791C70.8044 21.227 70.3832 21.1384 70.0218 20.9267C69.6604 20.7149 69.3785 20.3917 69.219 20.0062C69.0576 19.3303 68.997 18.6344 69.0393 17.9409V9.47585C69.0357 9.44029 69.0397 9.40437 69.051 9.37043C69.0623 9.33649 69.0806 9.30529 69.1048 9.27884C69.129 9.25239 69.1586 9.2313 69.1915 9.21692C69.2244 9.20254 69.2601 9.19521 69.296 9.19538L70.8875 8.88942H71.1185C71.1185 8.88942 71.2982 8.88942 71.2982 9.16989V17.8134C71.2592 18.1864 71.2592 18.5624 71.2982 18.9353C71.3108 19.0345 71.3595 19.1256 71.4352 19.1914C71.5109 19.2572 71.6083 19.2931 71.7089 19.2923C71.9048 19.3185 72.1034 19.3185 72.2993 19.2923H72.4276H72.556L72.9153 20.6946H72.9923ZM83.7732 13.3514C83.7884 13.41 83.7884 13.4714 83.7732 13.5299L83.2598 14.6008C83.2598 14.6008 83.1315 14.6008 83.0801 14.6008C83.054 14.6195 83.0225 14.6295 82.9903 14.6295C82.9581 14.6295 82.9266 14.6195 82.9005 14.6008C82.4694 14.2704 81.9535 14.0672 81.4117 14.0144C80.2309 14.0144 79.6919 14.9578 79.6919 16.8446C79.6919 18.7313 80.2822 19.3943 81.4887 19.3943C81.9916 19.3668 82.4785 19.2085 82.9005 18.9353C82.9266 18.9166 82.9581 18.9066 82.9903 18.9066C83.0225 18.9066 83.054 18.9166 83.0801 18.9353L83.4908 19.9297C83.4908 19.9297 83.4908 19.9297 83.4908 20.1082C83.4908 20.2867 83.1828 20.5162 82.6438 20.6946C82.1021 20.8967 81.5282 21.0003 80.9496 21.0006C80.4382 21.0582 79.9202 21.0036 79.4323 20.8406C78.9444 20.6776 78.4985 20.4101 78.1261 20.0572C77.4281 19.1729 77.0729 18.0691 77.125 16.9465C77.0509 15.69 77.4747 14.4546 78.3058 13.5044C78.6716 13.0892 79.127 12.7613 79.6381 12.545C80.1492 12.3287 80.7027 12.2296 81.2577 12.2551C81.8169 12.2805 82.3699 12.3835 82.9005 12.561C83.4908 12.8925 83.7989 13.122 83.7989 13.3514H83.7732ZM92.1155 20.1847C92.1155 20.1847 92.1155 20.1847 91.9358 20.3632L90.6011 21.1536C90.5738 21.1692 90.5428 21.1775 90.5112 21.1775C90.4797 21.1775 90.4487 21.1692 90.4214 21.1536C90.4214 21.1536 90.293 21.1536 90.1904 21.0006L86.8791 16.9465V20.5417C86.8791 20.616 86.8494 20.6874 86.7964 20.74C86.7435 20.7926 86.6716 20.8221 86.5967 20.8221H84.9283C84.8912 20.8256 84.8537 20.8218 84.8181 20.8109C84.7825 20.7999 84.7494 20.7821 84.7208 20.7584C84.6922 20.7347 84.6685 20.7056 84.6513 20.6727C84.634 20.6399 84.6235 20.604 84.6203 20.5671V9.37387C84.6167 9.337 84.6206 9.29981 84.6316 9.26444C84.6426 9.22907 84.6606 9.19621 84.6844 9.16777C84.7083 9.13932 84.7376 9.11585 84.7706 9.09871C84.8037 9.08157 84.8398 9.0711 84.8769 9.0679L86.6994 8.71094C86.8278 8.71094 86.8791 8.71094 86.8791 9.0169V15.6462L90.293 12.408C90.3337 12.3912 90.3773 12.3825 90.4214 12.3825C90.4654 12.3825 90.5091 12.3912 90.5497 12.408H90.7808L91.7305 13.122C91.7463 13.1491 91.7546 13.1799 91.7546 13.2112C91.7546 13.2425 91.7463 13.2733 91.7305 13.3004C91.7469 13.3588 91.7469 13.4205 91.7305 13.4789L88.8813 16.0541L92.1412 19.7512L92.1155 20.1847ZM40.5984 35.483C40.5984 35.6105 40.4701 35.789 40.1877 35.9675C39.4173 36.4391 38.5255 36.6782 37.6208 36.6559C36.8812 36.7108 36.1412 36.5524 35.4901 36.1995C34.8389 35.8467 34.3042 35.3146 33.9502 34.6671C33.3089 33.333 33.0176 31.8595 33.1031 30.3836C32.985 28.7605 33.4791 27.1518 34.4892 25.8706C34.8568 25.4406 35.3185 25.0999 35.8391 24.8745C36.3596 24.6491 36.9252 24.545 37.4925 24.5702C38.4098 24.6102 39.2982 24.9014 40.0594 25.4116C40.2904 25.5646 40.4187 25.6921 40.4187 25.8196C40.4187 25.8196 40.4187 25.9471 40.4187 25.8196L39.777 27.0689C39.7855 27.0927 39.788 27.1182 39.7842 27.1432C39.7803 27.1682 39.7704 27.1918 39.7551 27.212C39.7399 27.2322 39.7198 27.2483 39.6968 27.2589C39.6737 27.2696 39.6484 27.2744 39.623 27.2729L39.1096 26.9924C38.6967 26.6725 38.1951 26.4856 37.6722 26.457C36.3117 26.457 35.67 27.6299 35.67 30.0266C35.5914 31.3077 35.8385 32.5879 36.3887 33.7492C36.5409 34.0281 36.7741 34.2551 37.058 34.4006C37.3418 34.5462 37.6631 34.6035 37.9802 34.5651C38.5853 34.5251 39.1613 34.2927 39.623 33.9022H39.8027C39.8027 33.9022 39.8027 33.9022 39.9824 34.0552L40.6754 35.2535C40.6754 35.2535 40.6241 35.33 40.6241 35.381L40.5984 35.483ZM48.299 32.1939C48.3307 33.3175 47.9878 34.42 47.3236 35.33C46.9726 35.7145 46.5386 36.0151 46.054 36.2093C45.5695 36.4036 45.0471 36.4865 44.5257 36.4519C43.9942 36.4684 43.4653 36.3723 42.974 36.1701C42.4828 35.9679 42.0405 35.6641 41.6765 35.279C40.9811 34.3445 40.6279 33.2021 40.6754 32.0409C40.6344 30.9199 40.9885 29.8198 41.6765 28.9302C42.0333 28.5176 42.4797 28.1907 42.9822 27.9743C43.4846 27.7579 44.0299 27.6576 44.5771 27.6809C45.0904 27.6503 45.604 27.7354 46.0796 27.9296C46.5552 28.1239 46.9804 28.4224 47.3236 28.8028C48.0212 29.7544 48.3658 30.9165 48.299 32.0919V32.1939ZM45.9375 32.1939C45.9982 31.4614 45.8747 30.7255 45.5781 30.0521C45.475 29.852 45.3162 29.6854 45.1205 29.5724C44.9248 29.4594 44.7005 29.4047 44.4744 29.4147C44.2508 29.3997 44.0279 29.4526 43.8353 29.5665C43.6427 29.6803 43.4896 29.8497 43.3963 30.0521C43.1141 30.7027 42.9909 31.4104 43.0369 32.1174C42.9889 32.8244 43.1122 33.5326 43.3963 34.1827C43.5726 34.4739 43.8567 34.6849 44.1877 34.7707C44.5187 34.8565 44.8704 34.8102 45.1674 34.6416C45.3648 34.5298 45.5321 34.3724 45.6551 34.1827C45.8917 33.5386 45.9879 32.8521 45.9375 32.1684V32.1939ZM56.59 35.7635C56.59 35.7635 56.59 35.7635 56.4103 35.942L55.0242 36.4519H54.7675C54.5879 36.4519 54.4082 36.1715 54.2798 35.636C53.5549 36.2185 52.6451 36.5258 51.713 36.5029C51.2948 36.5064 50.8821 36.4083 50.5108 36.2172C50.1395 36.0261 49.8208 35.7478 49.5825 35.4065C49.049 34.448 48.7831 33.3652 48.8124 32.2704C48.7315 31.0223 49.1152 29.7882 49.8905 28.8028C50.1701 28.482 50.5175 28.2266 50.908 28.0547C51.2985 27.8828 51.7223 27.7987 52.1493 27.8084C52.742 27.8306 53.3215 27.9876 53.8435 28.2673V24.8762C53.8484 24.8009 53.8791 24.7295 53.9305 24.6739C53.9818 24.6182 54.0507 24.5817 54.1258 24.5702L56.051 24.2133C56.051 24.2133 56.2307 24.2133 56.2307 24.5192V34.2082C56.2317 34.7003 56.3366 35.1867 56.5387 35.636L56.59 35.7635ZM54.0231 34.3611V29.7461C53.6382 29.5638 53.2175 29.4681 52.791 29.4657C52.5528 29.4436 52.3133 29.4925 52.103 29.606C51.8928 29.7195 51.7213 29.8925 51.6103 30.1031C51.3257 30.771 51.2026 31.4958 51.2509 32.2194C51.225 32.9374 51.3294 33.6543 51.5589 34.3357C51.6477 34.536 51.7962 34.7045 51.9844 34.8185C52.1726 34.9325 52.3914 34.9864 52.6114 34.9731C53.1096 34.9201 53.5731 34.6944 53.9205 34.3357L54.0231 34.3611ZM64.4446 32.2959C64.4712 32.4134 64.4712 32.5353 64.4446 32.6528C64.3415 32.732 64.2156 32.7767 64.0853 32.7803H59.1826C59.1826 34.1827 59.9013 34.8966 61.1334 34.8966C61.8419 34.8759 62.5359 34.6926 63.1612 34.3611C63.197 34.3432 63.2366 34.3339 63.2767 34.3339C63.3168 34.3339 63.3564 34.3432 63.3922 34.3611C63.3922 34.3611 63.5206 34.3611 63.5719 34.5396L63.9826 35.534C63.9962 35.5618 64.0033 35.5923 64.0033 35.6233C64.0033 35.6542 63.9962 35.6847 63.9826 35.7125C63.9826 35.7125 63.7516 35.993 63.2639 36.2224C62.4942 36.5226 61.6776 36.6865 60.851 36.7069C59.9202 36.7509 59.0058 36.4512 58.2842 35.8655C57.8131 35.4149 57.4506 34.8644 57.2239 34.2551C56.9972 33.6458 56.9121 32.9934 56.975 32.3469C56.9217 31.1803 57.3058 30.0356 58.0531 29.1342C58.389 28.7301 58.8133 28.4075 59.2937 28.191C59.7742 27.9744 60.298 27.8697 60.8254 27.8849C63.2125 27.7574 64.342 29.2107 64.342 32.2704L64.4446 32.2959ZM62.1345 31.174C62.159 30.6713 62.053 30.1708 61.8264 29.7207C61.7082 29.569 61.5564 29.4464 61.3828 29.3624C61.2092 29.2784 61.0185 29.2352 60.8254 29.2362C60.6012 29.2224 60.3774 29.2697 60.1784 29.3731C59.9793 29.4765 59.8125 29.6319 59.6959 29.8226C59.4952 30.2285 59.3816 30.6713 59.3622 31.123H62.1345V31.174ZM76.0212 12.6885H72.6843C72.6472 12.685 72.6098 12.6888 72.5741 12.6998C72.5385 12.7107 72.5055 12.7285 72.4768 12.7523C72.4482 12.776 72.4246 12.8051 72.4073 12.8379C72.39 12.8707 72.3795 12.9066 72.3763 12.9435V13.9379C72.3753 14.0109 72.4006 14.0819 72.4476 14.138C72.4947 14.1941 72.5605 14.2317 72.633 14.2438H73.9677V20.6436C73.9677 20.718 73.9975 20.7894 74.0504 20.842C74.1034 20.8946 74.1752 20.9241 74.2501 20.9241H75.9186C75.9557 20.9276 75.9931 20.9238 76.0287 20.9128C76.0643 20.9019 76.0974 20.8841 76.126 20.8604C76.1547 20.8367 76.1783 20.8076 76.1956 20.7747C76.2128 20.7419 76.2234 20.706 76.2266 20.6691V13.02C76.2349 12.9769 76.2329 12.9325 76.2207 12.8903C76.2086 12.8481 76.1867 12.8093 76.1567 12.7771C76.1268 12.7448 76.0896 12.72 76.0483 12.7046C76.0069 12.6893 75.9625 12.6837 75.9186 12.6885H76.0212ZM75.0458 8.88942C74.8638 8.88604 74.6829 8.91831 74.5134 8.9844C74.3439 9.05049 74.1892 9.1491 74.0581 9.27459C73.927 9.40008 73.8221 9.55 73.7493 9.71578C73.6766 9.88156 73.6374 10.06 73.634 10.2408C73.6061 10.5161 73.6892 10.7911 73.8651 11.0057L75.0458 10.2408L74.5838 11.5411C74.7353 11.58 74.8943 11.58 75.0458 11.5411C75.4066 11.5411 75.7527 11.3988 76.0078 11.1453C76.2629 10.8919 76.4063 10.5482 76.4063 10.1898C76.4063 9.83138 76.2629 9.48765 76.0078 9.23423C75.7527 8.9808 75.4066 8.83842 75.0458 8.83842V8.88942Z" fill="white"/>
<path d="M41.8562 15.0597C41.8562 19.1648 40.3931 21.1536 37.4155 21.1536C34.4379 21.1536 33.1031 19.1648 33.1031 15.1107C33.0147 14.2298 33.1054 13.3402 33.37 12.4949C33.6346 11.6495 34.0676 10.8656 34.6433 10.1898C35.4354 9.47546 36.4743 9.09192 37.5438 9.11889C38.0914 9.09599 38.6376 9.18868 39.1464 9.39085C39.6552 9.59303 40.1151 9.90009 40.4957 10.2918C41.5339 11.656 42.0193 13.3573 41.8562 15.0597ZM39.2893 15.2382C39.315 12.408 38.7246 10.9547 37.4925 10.9547C36.2604 10.9547 35.7213 12.357 35.7213 15.1872C35.7213 18.0174 36.3117 19.3688 37.5438 19.3688C38.7759 19.3688 39.315 17.9409 39.315 15.1872L39.2893 15.2382ZM50.1985 20.6436C50.2021 20.6792 50.1981 20.7151 50.1869 20.7491C50.1756 20.783 50.1572 20.8142 50.133 20.8407C50.1088 20.8671 50.0793 20.8882 50.0464 20.9026C50.0134 20.917 49.9778 20.9243 49.9418 20.9241H48.2477C48.2119 20.9277 48.1757 20.9237 48.1416 20.9125C48.1074 20.9013 48.076 20.8831 48.0493 20.8591C48.0227 20.835 48.0015 20.8057 47.987 20.773C47.9725 20.7403 47.9651 20.7049 47.9653 20.6691V15.5697C47.9653 14.6518 47.606 14.1673 46.9386 14.1673C46.3676 14.2303 45.8343 14.4816 45.4241 14.8813V20.6436C45.4241 20.718 45.3944 20.7894 45.3414 20.842C45.2885 20.8946 45.2167 20.9241 45.1418 20.9241H43.4476C43.4118 20.9277 43.3757 20.9237 43.3415 20.9125C43.3073 20.9013 43.2759 20.8831 43.2493 20.8591C43.2227 20.835 43.2014 20.8057 43.187 20.773C43.1725 20.7403 43.1651 20.7049 43.1653 20.6691V15.0597C43.1753 14.4379 43.0528 13.821 42.8059 13.2494C42.7843 13.1919 42.7843 13.1285 42.8059 13.071C42.7843 13.0134 42.7843 12.95 42.8059 12.8925L44.423 12.357H44.6027C44.8337 12.357 45.0134 12.765 45.2444 13.5299C45.9473 12.8851 46.8558 12.5061 47.8113 12.459C49.3258 12.459 50.0445 13.3514 50.0445 15.0088L50.1985 20.6436ZM58.7205 16.9465C58.7454 17.0642 58.7454 17.1858 58.7205 17.3035C58.6205 17.3366 58.5125 17.3366 58.4125 17.3035H53.6381C53.6381 18.7313 54.3312 19.4198 55.5889 19.4198C56.2885 19.4166 56.9763 19.2414 57.5911 18.9098C57.6665 18.8879 57.7467 18.8879 57.8221 18.9098C57.8221 18.9098 57.9505 18.9098 58.0018 19.0883L58.4125 20.0827C58.4321 20.1406 58.4321 20.2033 58.4125 20.2612C58.4125 20.2612 58.1558 20.5671 57.6938 20.7966C56.8756 21.1142 56.0053 21.2785 55.1269 21.2811C54.197 21.318 53.2852 21.019 52.56 20.4397C52.0935 19.9868 51.7359 19.4352 51.5137 18.826C51.2915 18.2168 51.2104 17.5657 51.2766 16.921C51.2466 15.7403 51.6686 14.5922 52.4574 13.7084C52.8036 13.3049 53.2378 12.985 53.727 12.773C54.2162 12.5609 54.7476 12.4623 55.2809 12.4845C57.5911 12.408 58.7205 13.8869 58.7205 16.9465ZM56.359 15.8247C56.3884 15.3216 56.2821 14.8199 56.051 14.3713C55.9329 14.2176 55.775 14.0984 55.5943 14.0266C55.4135 13.9548 55.2165 13.9329 55.0242 13.9634C54.8004 13.9523 54.5778 14.0009 54.3792 14.104C54.1806 14.2071 54.0134 14.361 53.8948 14.5498C53.6865 14.9451 53.5641 15.3794 53.5354 15.8247H56.359ZM68.4746 20.0572C68.4746 20.0572 68.3463 20.3632 68.0639 20.5162C67.3021 21.0096 66.4061 21.2588 65.4971 21.2301C64.7588 21.2756 64.0225 21.1131 63.3732 20.7612C62.7238 20.4094 62.1876 19.8825 61.8264 19.2413C61.1805 17.9444 60.8801 16.5048 60.9537 15.0597C60.83 13.4319 61.3348 11.8183 62.3655 10.5467C62.7272 10.1299 63.1769 9.79727 63.6827 9.57253C64.1884 9.34779 64.7378 9.23644 65.2917 9.24638C66.2052 9.28642 67.0914 9.5681 67.8586 10.0623C68.0896 10.2408 68.2179 10.3683 68.2179 10.4702C68.2179 10.5722 68.2179 10.5977 68.2179 10.5977L67.4992 11.8216C67.4878 11.8597 67.464 11.8929 67.4314 11.916C67.3989 11.9391 67.3595 11.9507 67.3195 11.9491C67.1294 11.8665 66.9486 11.764 66.7805 11.6431C66.3802 11.3217 65.8834 11.1422 65.3687 11.1332C64.0083 11.1332 63.3666 12.306 63.3666 14.7028C63.2842 15.9732 63.5225 17.244 64.0596 18.3999C64.2081 18.6835 64.4397 18.9158 64.7238 19.066C65.008 19.2162 65.3313 19.2774 65.6511 19.2413C66.2975 19.2365 66.9227 19.0115 67.4222 18.6039C67.4222 18.6039 67.4222 18.6039 67.6019 18.6039C67.7816 18.6039 67.6019 18.6039 67.7559 18.7823L68.4746 19.9552V20.0572ZM72.9923 20.6946C72.9923 20.6946 72.8383 20.9496 72.402 21.0006C72.0213 21.1256 71.6221 21.1859 71.2212 21.1791C70.8044 21.227 70.3832 21.1384 70.0218 20.9267C69.6604 20.7149 69.3785 20.3917 69.219 20.0062C69.0576 19.3303 68.997 18.6344 69.0393 17.9409V9.47585C69.0357 9.44029 69.0397 9.40437 69.051 9.37043C69.0623 9.33649 69.0806 9.30529 69.1048 9.27884C69.129 9.25239 69.1586 9.2313 69.1915 9.21692C69.2244 9.20254 69.2601 9.19521 69.296 9.19538L70.8875 8.88942H71.1185C71.1185 8.88942 71.2982 8.88942 71.2982 9.16989V17.8134C71.2592 18.1864 71.2592 18.5624 71.2982 18.9353C71.3108 19.0345 71.3595 19.1256 71.4352 19.1914C71.5109 19.2572 71.6083 19.2931 71.7089 19.2923C71.9048 19.3185 72.1034 19.3185 72.2993 19.2923H72.4276H72.556L72.9153 20.6946H72.9923ZM83.7732 13.3514C83.7884 13.41 83.7884 13.4714 83.7732 13.5299L83.2598 14.6008C83.2598 14.6008 83.1315 14.6008 83.0801 14.6008C83.054 14.6195 83.0225 14.6295 82.9903 14.6295C82.9581 14.6295 82.9266 14.6195 82.9005 14.6008C82.4694 14.2704 81.9535 14.0672 81.4117 14.0144C80.2309 14.0144 79.6919 14.9578 79.6919 16.8446C79.6919 18.7313 80.2822 19.3943 81.4887 19.3943C81.9916 19.3668 82.4785 19.2085 82.9005 18.9353C82.9266 18.9166 82.9581 18.9066 82.9903 18.9066C83.0225 18.9066 83.054 18.9166 83.0801 18.9353L83.4908 19.9297C83.4908 19.9297 83.4908 19.9297 83.4908 20.1082C83.4908 20.2867 83.1828 20.5162 82.6438 20.6946C82.1021 20.8967 81.5282 21.0003 80.9496 21.0006C80.4382 21.0582 79.9202 21.0036 79.4323 20.8406C78.9444 20.6776 78.4985 20.4101 78.1261 20.0572C77.4281 19.1729 77.0729 18.0691 77.125 16.9465C77.0509 15.69 77.4747 14.4546 78.3058 13.5044C78.6716 13.0892 79.127 12.7613 79.6381 12.545C80.1492 12.3287 80.7027 12.2296 81.2577 12.2551C81.8169 12.2805 82.3699 12.3835 82.9005 12.561C83.4908 12.8925 83.7989 13.122 83.7989 13.3514H83.7732ZM92.1155 20.1847C92.1155 20.1847 92.1155 20.1847 91.9358 20.3632L90.6011 21.1536C90.5738 21.1692 90.5428 21.1775 90.5112 21.1775C90.4797 21.1775 90.4487 21.1692 90.4214 21.1536C90.4214 21.1536 90.293 21.1536 90.1904 21.0006L86.8791 16.9465V20.5417C86.8791 20.616 86.8494 20.6874 86.7964 20.74C86.7435 20.7926 86.6716 20.8221 86.5967 20.8221H84.9283C84.8912 20.8256 84.8537 20.8218 84.8181 20.8109C84.7825 20.7999 84.7494 20.7821 84.7208 20.7584C84.6922 20.7347 84.6685 20.7056 84.6513 20.6727C84.634 20.6399 84.6235 20.604 84.6203 20.5671V9.37387C84.6167 9.337 84.6206 9.29981 84.6316 9.26444C84.6426 9.22907 84.6606 9.19621 84.6844 9.16777C84.7083 9.13932 84.7376 9.11585 84.7706 9.09871C84.8037 9.08157 84.8398 9.0711 84.8769 9.0679L86.6994 8.71094C86.8278 8.71094 86.8791 8.71094 86.8791 9.0169V15.6462L90.293 12.408C90.3337 12.3912 90.3773 12.3825 90.4214 12.3825C90.4654 12.3825 90.5091 12.3912 90.5497 12.408H90.7808L91.7305 13.122C91.7463 13.1491 91.7546 13.1799 91.7546 13.2112C91.7546 13.2425 91.7463 13.2733 91.7305 13.3004C91.7469 13.3588 91.7469 13.4205 91.7305 13.4789L88.8813 16.0541L92.1412 19.7512L92.1155 20.1847ZM40.5984 35.483C40.5984 35.6105 40.4701 35.789 40.1877 35.9675C39.4173 36.4391 38.5255 36.6782 37.6208 36.6559C36.8812 36.7108 36.1412 36.5524 35.4901 36.1995C34.8389 35.8467 34.3042 35.3146 33.9502 34.6671C33.3089 33.333 33.0176 31.8595 33.1031 30.3836C32.985 28.7605 33.4791 27.1518 34.4892 25.8706C34.8568 25.4406 35.3185 25.0999 35.8391 24.8745C36.3596 24.6491 36.9252 24.545 37.4925 24.5702C38.4098 24.6102 39.2982 24.9014 40.0594 25.4116C40.2904 25.5646 40.4187 25.6921 40.4187 25.8196C40.4187 25.8196 40.4187 25.9471 40.4187 25.8196L39.777 27.0689C39.7855 27.0927 39.788 27.1182 39.7842 27.1432C39.7803 27.1682 39.7704 27.1918 39.7551 27.212C39.7399 27.2322 39.7198 27.2483 39.6968 27.2589C39.6737 27.2696 39.6484 27.2744 39.623 27.2729L39.1096 26.9924C38.6967 26.6725 38.1951 26.4856 37.6722 26.457C36.3117 26.457 35.67 27.6299 35.67 30.0266C35.5914 31.3077 35.8385 32.5879 36.3887 33.7492C36.5409 34.0281 36.7741 34.2551 37.058 34.4006C37.3418 34.5462 37.6631 34.6035 37.9802 34.5651C38.5853 34.5251 39.1613 34.2927 39.623 33.9022H39.8027C39.8027 33.9022 39.8027 33.9022 39.9824 34.0552L40.6754 35.2535C40.6754 35.2535 40.6241 35.33 40.6241 35.381L40.5984 35.483ZM48.299 32.1939C48.3307 33.3175 47.9878 34.42 47.3236 35.33C46.9726 35.7145 46.5386 36.0151 46.054 36.2093C45.5695 36.4036 45.0471 36.4865 44.5257 36.4519C43.9942 36.4684 43.4653 36.3723 42.974 36.1701C42.4828 35.9679 42.0405 35.6641 41.6765 35.279C40.9811 34.3445 40.6279 33.2021 40.6754 32.0409C40.6344 30.9199 40.9885 29.8198 41.6765 28.9302C42.0333 28.5176 42.4797 28.1907 42.9822 27.9743C43.4846 27.7579 44.0299 27.6576 44.5771 27.6809C45.0904 27.6503 45.604 27.7354 46.0796 27.9296C46.5552 28.1239 46.9804 28.4224 47.3236 28.8028C48.0212 29.7544 48.3658 30.9165 48.299 32.0919V32.1939ZM45.9375 32.1939C45.9982 31.4614 45.8747 30.7255 45.5781 30.0521C45.475 29.852 45.3162 29.6854 45.1205 29.5724C44.9248 29.4594 44.7005 29.4047 44.4744 29.4147C44.2508 29.3997 44.0279 29.4526 43.8353 29.5665C43.6427 29.6803 43.4896 29.8497 43.3963 30.0521C43.1141 30.7027 42.9909 31.4104 43.0369 32.1174C42.9889 32.8244 43.1122 33.5326 43.3963 34.1827C43.5726 34.4739 43.8567 34.6849 44.1877 34.7707C44.5187 34.8565 44.8704 34.8102 45.1674 34.6416C45.3648 34.5298 45.5321 34.3724 45.6551 34.1827C45.8917 33.5386 45.9879 32.8521 45.9375 32.1684V32.1939ZM56.59 35.7635C56.59 35.7635 56.59 35.7635 56.4103 35.942L55.0242 36.4519H54.7675C54.5879 36.4519 54.4082 36.1715 54.2798 35.636C53.5549 36.2185 52.6451 36.5258 51.713 36.5029C51.2948 36.5064 50.8821 36.4083 50.5108 36.2172C50.1395 36.0261 49.8208 35.7478 49.5825 35.4065C49.049 34.448 48.7831 33.3652 48.8124 32.2704C48.7315 31.0223 49.1152 29.7882 49.8905 28.8028C50.1701 28.482 50.5175 28.2266 50.908 28.0547C51.2985 27.8828 51.7223 27.7987 52.1493 27.8084C52.742 27.8306 53.3215 27.9876 53.8435 28.2673V24.8762C53.8484 24.8009 53.8791 24.7295 53.9305 24.6739C53.9818 24.6182 54.0507 24.5817 54.1258 24.5702L56.051 24.2133C56.051 24.2133 56.2307 24.2133 56.2307 24.5192V34.2082C56.2317 34.7003 56.3366 35.1867 56.5387 35.636L56.59 35.7635ZM54.0231 34.3611V29.7461C53.6382 29.5638 53.2175 29.4681 52.791 29.4657C52.5528 29.4436 52.3133 29.4925 52.103 29.606C51.8928 29.7195 51.7213 29.8925 51.6103 30.1031C51.3257 30.771 51.2026 31.4958 51.2509 32.2194C51.225 32.9374 51.3294 33.6543 51.5589 34.3357C51.6477 34.536 51.7962 34.7045 51.9844 34.8185C52.1726 34.9325 52.3914 34.9864 52.6114 34.9731C53.1096 34.9201 53.5731 34.6944 53.9205 34.3357L54.0231 34.3611ZM64.4446 32.2959C64.4712 32.4134 64.4712 32.5353 64.4446 32.6528C64.3415 32.732 64.2156 32.7767 64.0853 32.7803H59.1826C59.1826 34.1827 59.9013 34.8966 61.1334 34.8966C61.8419 34.8759 62.5359 34.6926 63.1612 34.3611C63.197 34.3432 63.2366 34.3339 63.2767 34.3339C63.3168 34.3339 63.3564 34.3432 63.3922 34.3611C63.3922 34.3611 63.5206 34.3611 63.5719 34.5396L63.9826 35.534C63.9962 35.5618 64.0033 35.5923 64.0033 35.6233C64.0033 35.6542 63.9962 35.6847 63.9826 35.7125C63.9826 35.7125 63.7516 35.993 63.2639 36.2224C62.4942 36.5226 61.6776 36.6865 60.851 36.7069C59.9202 36.7509 59.0058 36.4512 58.2842 35.8655C57.8131 35.4149 57.4506 34.8644 57.2239 34.2551C56.9972 33.6458 56.9121 32.9934 56.975 32.3469C56.9217 31.1803 57.3058 30.0356 58.0531 29.1342C58.389 28.7301 58.8133 28.4075 59.2937 28.191C59.7742 27.9744 60.298 27.8697 60.8254 27.8849C63.2125 27.7574 64.342 29.2107 64.342 32.2704L64.4446 32.2959ZM62.1345 31.174C62.159 30.6713 62.053 30.1708 61.8264 29.7207C61.7082 29.569 61.5564 29.4464 61.3828 29.3624C61.2092 29.2784 61.0185 29.2352 60.8254 29.2362C60.6012 29.2224 60.3774 29.2697 60.1784 29.3731C59.9793 29.4765 59.8125 29.6319 59.6959 29.8226C59.4952 30.2285 59.3816 30.6713 59.3622 31.123H62.1345V31.174ZM76.0212 12.6885H72.6843C72.6472 12.685 72.6098 12.6888 72.5741 12.6998C72.5385 12.7107 72.5055 12.7285 72.4768 12.7523C72.4482 12.776 72.4246 12.8051 72.4073 12.8379C72.39 12.8707 72.3795 12.9066 72.3763 12.9435V13.9379C72.3753 14.0109 72.4006 14.0819 72.4476 14.138C72.4947 14.1941 72.5605 14.2317 72.633 14.2438H73.9677V20.6436C73.9677 20.718 73.9975 20.7894 74.0504 20.842C74.1034 20.8946 74.1752 20.9241 74.2501 20.9241H75.9186C75.9557 20.9276 75.9931 20.9238 76.0287 20.9128C76.0643 20.9019 76.0974 20.8841 76.126 20.8604C76.1547 20.8367 76.1783 20.8076 76.1956 20.7747C76.2128 20.7419 76.2234 20.706 76.2266 20.6691V13.02C76.2349 12.9769 76.2329 12.9325 76.2207 12.8903C76.2086 12.8481 76.1867 12.8093 76.1567 12.7771C76.1268 12.7448 76.0896 12.72 76.0483 12.7046C76.0069 12.6893 75.9625 12.6837 75.9186 12.6885H76.0212ZM75.0458 8.88942C74.8638 8.88604 74.6829 8.91831 74.5134 8.9844C74.3439 9.05049 74.1892 9.1491 74.0581 9.27459C73.927 9.40008 73.8221 9.55 73.7493 9.71578C73.6766 9.88156 73.6374 10.06 73.634 10.2408C73.6061 10.5161 73.6892 10.7911 73.8651 11.0057L75.0458 10.2408L74.5838 11.5411C74.7353 11.58 74.8943 11.58 75.0458 11.5411C75.4066 11.5411 75.7527 11.3988 76.0078 11.1453C76.2629 10.8919 76.4063 10.5482 76.4063 10.1898C76.4063 9.83138 76.2629 9.48765 76.0078 9.23423C75.7527 8.9808 75.4066 8.83842 75.0458 8.83842V8.88942Z" fill="white"/>
<defs>
<linearGradient id="paint0_linear_1182_2702" x1="-4.22039" y1="35.2711" x2="-0.81039" y2="44.9188" gradientUnits="userSpaceOnUse">
<stop stop-color="#231F20"/>
<stop offset="1" stop-color="#FDB728"/>
</linearGradient>
<linearGradient id="paint1_linear_1182_2702" x1="24.8753" y1="1.69606" x2="36.4476" y2="28.4545" gradientUnits="userSpaceOnUse">
<stop stop-color="#5E7B9D" stop-opacity="0"/>
<stop offset="1" stop-color="#5E7B9D"/>
</linearGradient>
<clipPath id="clip0_1182_2702">
<rect width="26.656" height="39.6878" fill="white" transform="translate(0.527344 0.523438)"/>
</clipPath>
</defs>
</svg>
