<svg width="130" height="33" viewBox="0 0 130 33" fill="none" xmlns="http://www.w3.org/2000/svg">
<g clip-path="url(#clip0_1643_2354)">
<path d="M29.4198 11.0675C29.1882 5.36901 24.4695 0.827637 18.7087 0.827637C13.0637 0.827637 8.43192 5.22438 8.02662 10.7492C3.48171 12.1955 0.5 16.708 0.5 20.8445C0.5 24.923 3.36592 31.4024 11.0663 31.4024C13.7874 31.4024 16.4218 30.2453 18.6798 28.7702C19.8667 29.9561 22.4721 31.9231 26.8144 31.9231C33.0383 31.9231 37.3806 26.3693 37.3806 21.3651C37.3806 17.7782 35.1516 12.3402 29.4198 11.0675ZM18.7087 3.43098C22.9353 3.43098 26.4091 6.67068 26.7854 10.8071C24.0932 10.8071 21.4589 11.9642 19.2009 13.4393C18.014 12.2534 15.4086 10.2864 11.0663 10.2864C10.9505 10.2864 10.8347 10.2864 10.6899 10.2864C11.2979 6.41036 14.6559 3.43098 18.7087 3.43098ZM26.8144 29.3198C23.659 29.3198 21.7483 28.047 20.793 27.2081C23.2247 25.2122 24.9616 23.1296 25.5117 22.4643L26.8144 23.6213L27.9723 17.5469L22.1826 19.5717L23.5431 20.7576C22.8195 21.6543 16.9139 28.828 11.0373 28.828C5.1897 28.828 3.07644 24.0842 3.07644 20.8733C3.07644 17.113 6.34764 12.9187 11.0373 12.9187C14.1927 12.9187 16.1034 14.1914 17.0586 15.0303C14.627 17.0262 12.8901 19.1089 12.34 19.7741L11.0373 18.6171L9.87935 24.6916L15.6691 22.6667L14.3085 21.4808C15.0322 20.5841 20.9378 13.4105 26.8144 13.4105C32.662 13.4105 34.7752 18.1543 34.7752 21.3651C34.7752 25.1255 31.504 29.3198 26.8144 29.3198Z" fill="white"/>
<path d="M52.5695 18.7046C52.5695 18.1674 52.3681 17.6974 51.9652 17.2946C51.5792 16.8749 51.0923 16.5392 50.5049 16.2874C49.9173 16.0189 49.2711 15.7167 48.5661 15.381C47.8779 15.0285 47.24 14.6676 46.6526 14.2983C46.065 13.9123 45.5699 13.3835 45.167 12.7121C44.7809 12.0239 44.5879 11.2349 44.5879 10.3453C44.5879 8.98568 45.083 7.83583 46.0734 6.89583C47.0974 5.95583 48.4318 5.48584 50.0768 5.48584C52.3093 5.48584 53.9879 6.1153 55.1125 7.37423L53.4507 9.69068C52.5611 8.81783 51.5204 8.3814 50.3286 8.3814C49.5732 8.3814 48.9689 8.55765 48.5157 8.91008C48.0793 9.26258 47.8611 9.7326 47.8611 10.3201C47.8611 10.6223 47.9198 10.9076 48.0374 11.1762C48.1548 11.428 48.2807 11.6378 48.4151 11.8057C48.5661 11.9735 48.8011 12.1581 49.1201 12.3596C49.4558 12.561 49.7159 12.7121 49.9006 12.8128C50.102 12.8967 50.4293 13.0394 50.8825 13.2408C51.3357 13.4423 51.6547 13.5849 51.8393 13.6688C52.5779 14.0045 53.2241 14.357 53.778 14.7263C54.3991 15.0956 54.8943 15.6244 55.2636 16.3126C55.6496 17.0008 55.8427 17.7897 55.8427 18.6794C55.8427 20.1565 55.2803 21.3567 54.1557 22.2799C53.0311 23.2031 51.6295 23.6647 49.9509 23.6647C48.7759 23.6647 47.6093 23.4213 46.4511 22.9346C45.3433 22.431 44.5879 21.7511 44.1851 20.8951L45.9476 18.7801C46.4175 19.4012 47.0218 19.8879 47.7604 20.2404C48.5157 20.5929 49.2627 20.7692 50.0012 20.7692C50.7734 20.7692 51.3945 20.5846 51.8645 20.2153C52.3345 19.846 52.5695 19.3424 52.5695 18.7046Z" fill="white"/>
<path d="M66.2094 12.0571H69.5078L65.0512 23.3875C64.2455 25.3513 63.5237 26.6774 62.8858 27.3656C62.2648 28.0706 61.5262 28.4231 60.6701 28.4231C59.8644 28.4231 59.0503 28.1294 58.2278 27.5419L59.1594 25.3513C59.5958 25.6199 59.9903 25.7542 60.3428 25.7542C61.031 25.7542 61.6101 25.1667 62.0801 23.9917L62.3319 23.3875L57.0947 12.0571H60.5694L63.2132 18.251C63.2467 18.3349 63.4313 18.8805 63.767 19.8876C63.8678 19.2666 64.0021 18.7126 64.1699 18.2258L66.2094 12.0571Z" fill="white"/>
<path d="M74.1392 23.3882H71.2437V12.0579H74.1392V13.1909C74.9784 12.3013 76.0609 11.8564 77.3869 11.8564C80.4927 11.8564 82.0452 13.4846 82.0452 16.741V23.3882H79.1494V17.2447C79.1494 15.4654 78.3019 14.5757 76.6069 14.5757C75.6837 14.5757 74.8609 14.9366 74.1392 15.6584V23.3882Z" fill="white"/>
<path d="M93.5739 19.5856L94.9337 21.7006C93.9767 23.0099 92.4744 23.6645 90.4269 23.6645C88.5969 23.6645 87.1119 23.119 85.9704 22.0279C84.8454 20.9536 84.2837 19.5185 84.2837 17.7224C84.2837 16.027 84.8372 14.6171 85.9449 13.4924C87.0527 12.3509 88.4544 11.7803 90.1502 11.7803C92.1639 11.7803 93.6834 12.2922 94.7072 13.3161L93.3474 15.6074C92.5757 14.8688 91.6352 14.4995 90.5274 14.4995C89.6882 14.4995 88.9494 14.8016 88.3119 15.406C87.6909 15.9767 87.3804 16.7488 87.3804 17.7224C87.3804 18.6959 87.6992 19.4849 88.3367 20.0891C89.0087 20.6766 89.7804 20.9704 90.6534 20.9704C91.7784 20.9704 92.7519 20.5088 93.5739 19.5856Z" fill="white"/>
<path d="M105.164 18.7046C105.164 18.1674 104.963 17.6974 104.56 17.2946C104.174 16.8749 103.687 16.5392 103.1 16.2874C102.512 16.0189 101.866 15.7167 101.161 15.381C100.472 15.0285 99.834 14.6676 99.2468 14.2983C98.6595 13.9123 98.1646 13.3835 97.7611 12.7121C97.3756 12.0239 97.182 11.2349 97.182 10.3453C97.182 8.98568 97.6771 7.83583 98.6678 6.89583C99.6916 5.95583 101.026 5.48584 102.671 5.48584C104.903 5.48584 106.583 6.1153 107.707 7.37423L106.045 9.69068C105.155 8.81783 104.115 8.3814 102.923 8.3814C102.167 8.3814 101.564 8.55765 101.11 8.91008C100.673 9.26258 100.456 9.7326 100.456 10.3201C100.456 10.6223 100.514 10.9076 100.632 11.1762C100.749 11.428 100.875 11.6378 101.009 11.8057C101.161 11.9735 101.396 12.1581 101.714 12.3596C102.05 12.561 102.311 12.7121 102.495 12.8128C102.696 12.8967 103.024 13.0394 103.477 13.2408C103.93 13.4423 104.249 13.5849 104.434 13.6688C105.173 14.0045 105.818 14.357 106.373 14.7263C106.994 15.0956 107.489 15.6244 107.858 16.3126C108.244 17.0008 108.437 17.7897 108.437 18.6794C108.437 20.1565 107.875 21.3567 106.75 22.2799C105.626 23.2031 104.224 23.6647 102.545 23.6647C101.37 23.6647 100.204 23.4213 99.0458 22.9346C97.9373 22.431 97.182 21.7511 96.7793 20.8951L98.5418 18.7801C99.0121 19.4012 99.6158 19.8879 100.355 20.2404C101.11 20.5929 101.857 20.7692 102.596 20.7692C103.368 20.7692 103.989 20.5846 104.459 20.2153C104.929 19.846 105.164 19.3424 105.164 18.7046Z" fill="white"/>
<path d="M111.175 20.2655V5.7627H114.071V19.0821C114.071 20.3075 114.398 20.9202 115.052 20.9202C115.421 20.9202 115.816 20.769 116.236 20.4669L116.84 22.6827C116.051 23.3205 115.052 23.6394 113.844 23.6394C112.064 23.6394 111.175 22.5148 111.175 20.2655Z" fill="white"/>
<path d="M121.595 23.3882H118.699V12.0579H121.595V13.1909C122.434 12.3013 123.516 11.8564 124.842 11.8564C127.948 11.8564 129.501 13.4846 129.501 16.741V23.3882H126.605V17.2447C126.605 15.4654 125.757 14.5757 124.062 14.5757C123.139 14.5757 122.316 14.9366 121.595 15.6584V23.3882Z" fill="white"/>
</g>
<defs>
<clipPath id="clip0_1643_2354">
<rect width="129" height="31.5" fill="white" transform="translate(0.5 0.827637)"/>
</clipPath>
</defs>
</svg>
