<svg width="130" height="33" viewBox="0 0 130 33" fill="none" xmlns="http://www.w3.org/2000/svg">
<g clip-path="url(#clip0_1739_7823)">
<path d="M29.6698 10.9898C29.4382 5.29138 24.7195 0.75 18.9587 0.75C13.3137 0.75 8.68192 5.14675 8.27662 10.6716C3.73171 12.1179 0.75 16.6304 0.75 20.7668C0.75 24.8453 3.61592 31.3248 11.3163 31.3248C14.0374 31.3248 16.6718 30.1677 18.9298 28.6925C20.1167 29.8785 22.7221 31.8455 27.0644 31.8455C33.2883 31.8455 37.6306 26.2916 37.6306 21.2875C37.6306 17.7006 35.4016 12.2626 29.6698 10.9898ZM18.9587 3.35334C23.1853 3.35334 26.6591 6.59305 27.0354 10.7295C24.3432 10.7295 21.7089 11.8865 19.4509 13.3617C18.264 12.1758 15.6586 10.2088 11.3163 10.2088C11.2005 10.2088 11.0847 10.2088 10.9399 10.2088C11.5479 6.33272 14.9059 3.35334 18.9587 3.35334ZM27.0644 29.2421C23.909 29.2421 21.9983 27.9694 21.043 27.1305C23.4747 25.1346 25.2116 23.0519 25.7617 22.3867L27.0644 23.5437L28.2223 17.4692L22.4326 19.4941L23.7931 20.68C23.0695 21.5767 17.1639 28.7504 11.2873 28.7504C5.4397 28.7504 3.32644 24.0065 3.32644 20.7957C3.32644 17.0354 6.59764 12.8411 11.2873 12.8411C14.4427 12.8411 16.3534 14.1138 17.3086 14.9527C14.877 16.9486 13.1401 19.0312 12.59 19.6965L11.2873 18.5395L10.1294 24.6139L15.9191 22.5891L14.5585 21.4031C15.2822 20.5064 21.1878 13.3328 27.0644 13.3328C32.912 13.3328 35.0252 18.0767 35.0252 21.2875C35.0252 25.0478 31.754 29.2421 27.0644 29.2421Z" fill="white"/>
<path d="M52.8199 18.6269C52.8199 18.0898 52.6186 17.6197 52.2157 17.2169C51.8296 16.7973 51.3428 16.4616 50.7553 16.2097C50.1678 15.9412 49.5216 15.6391 48.8166 15.3034C48.1284 14.9509 47.4905 14.59 46.903 14.2207C46.3155 13.8346 45.8203 13.3059 45.4175 12.6344C45.0314 11.9462 44.8384 11.1573 44.8384 10.2676C44.8384 8.90804 45.3335 7.75819 46.3239 6.8182C47.3479 5.8782 48.6823 5.4082 50.3273 5.4082C52.5598 5.4082 54.2383 6.03766 55.363 7.29659L53.7012 9.61304C52.8115 8.74019 51.7708 8.30377 50.5791 8.30377C49.8237 8.30377 49.2194 8.48002 48.7662 8.83244C48.3298 9.18494 48.1116 9.65497 48.1116 10.2424C48.1116 10.5446 48.1703 10.83 48.2878 11.0986C48.4053 11.3503 48.5312 11.5601 48.6655 11.728C48.8166 11.8959 49.0516 12.0805 49.3705 12.2819C49.7062 12.4834 49.9664 12.6344 50.1511 12.7351C50.3524 12.8191 50.6798 12.9617 51.133 13.1632C51.5862 13.3646 51.9052 13.5073 52.0898 13.5912C52.8283 13.9269 53.4746 14.2794 54.0285 14.6487C54.6496 15.018 55.1448 15.5467 55.5141 16.2349C55.9001 16.9231 56.0932 17.7121 56.0932 18.6017C56.0932 20.0788 55.5308 21.2791 54.4062 22.2022C53.2816 23.1255 51.88 23.587 50.2014 23.587C49.0264 23.587 47.8598 23.3437 46.7016 22.8569C45.5938 22.3534 44.8384 21.6735 44.4355 20.8174L46.198 18.7024C46.668 19.3235 47.2723 19.8103 48.0109 20.1628C48.7662 20.5153 49.5132 20.6915 50.2517 20.6915C51.0239 20.6915 51.645 20.5069 52.1149 20.1376C52.585 19.7683 52.8199 19.2648 52.8199 18.6269Z" fill="white"/>
<path d="M66.4604 11.9795H69.7587L65.3022 23.3098C64.4964 25.2737 63.7746 26.5998 63.1368 27.288C62.5158 27.993 61.7772 28.3455 60.9211 28.3455C60.1154 28.3455 59.3013 28.0518 58.4788 27.4642L59.4104 25.2737C59.8468 25.5423 60.2412 25.6766 60.5937 25.6766C61.282 25.6766 61.8611 25.089 62.3311 23.9141L62.5829 23.3098L57.3457 11.9795H60.8204L63.4641 18.1734C63.4977 18.2573 63.6823 18.8028 64.018 19.8099C64.1187 19.1889 64.2531 18.635 64.4209 18.1482L66.4604 11.9795Z" fill="white"/>
<path d="M74.3897 23.3106H71.4941V11.9803H74.3897V13.1133C75.2289 12.2236 76.3114 11.7788 77.6374 11.7788C80.7431 11.7788 82.2956 13.407 82.2956 16.6634V23.3106H79.3999V17.167C79.3999 15.3877 78.5524 14.4981 76.8574 14.4981C75.9341 14.4981 75.1114 14.859 74.3897 15.5808V23.3106Z" fill="white"/>
<path d="M93.8244 19.508L95.1842 21.623C94.2272 22.9322 92.7249 23.5868 90.6774 23.5868C88.8474 23.5868 87.3624 23.0414 86.2209 21.9503C85.0959 20.876 84.5342 19.4408 84.5342 17.6447C84.5342 15.9494 85.0877 14.5394 86.1954 13.4147C87.3032 12.2733 88.7049 11.7026 90.4007 11.7026C92.4144 11.7026 93.9339 12.2146 94.9577 13.2385L93.5979 15.5297C92.8262 14.7912 91.8857 14.4219 90.7779 14.4219C89.9387 14.4219 89.1999 14.724 88.5624 15.3284C87.9414 15.899 87.6309 16.6712 87.6309 17.6447C87.6309 18.6183 87.9497 19.4072 88.5872 20.0115C89.2592 20.599 90.0309 20.8928 90.9039 20.8928C92.0289 20.8928 93.0024 20.4311 93.8244 19.508Z" fill="white"/>
<path d="M105.414 18.6269C105.414 18.0898 105.213 17.6197 104.81 17.2169C104.424 16.7973 103.937 16.4616 103.35 16.2097C102.762 15.9412 102.116 15.6391 101.411 15.3034C100.722 14.9509 100.084 14.59 99.4968 14.2207C98.9095 13.8346 98.4146 13.3059 98.0111 12.6344C97.6256 11.9462 97.432 11.1573 97.432 10.2676C97.432 8.90804 97.9271 7.75819 98.9178 6.8182C99.9416 5.8782 101.276 5.4082 102.921 5.4082C105.153 5.4082 106.833 6.03766 107.957 7.29659L106.295 9.61304C105.405 8.74019 104.365 8.30377 103.173 8.30377C102.417 8.30377 101.814 8.48002 101.36 8.83244C100.923 9.18494 100.706 9.65497 100.706 10.2424C100.706 10.5446 100.764 10.83 100.882 11.0986C100.999 11.3503 101.125 11.5601 101.259 11.728C101.411 11.8959 101.646 12.0805 101.964 12.2819C102.3 12.4834 102.561 12.6344 102.745 12.7351C102.946 12.8191 103.274 12.9617 103.727 13.1632C104.18 13.3646 104.499 13.5073 104.684 13.5912C105.423 13.9269 106.068 14.2794 106.623 14.6487C107.244 15.018 107.739 15.5467 108.108 16.2349C108.494 16.9231 108.687 17.7121 108.687 18.6017C108.687 20.0788 108.125 21.2791 107 22.2022C105.876 23.1255 104.474 23.587 102.795 23.587C101.62 23.587 100.454 23.3437 99.2958 22.8569C98.1873 22.3534 97.432 21.6735 97.0293 20.8174L98.7918 18.7024C99.2621 19.3235 99.8658 19.8103 100.605 20.1628C101.36 20.5153 102.107 20.6915 102.846 20.6915C103.618 20.6915 104.239 20.5069 104.709 20.1376C105.179 19.7683 105.414 19.2648 105.414 18.6269Z" fill="white"/>
<path d="M111.426 20.1879V5.68506H114.322V19.0045C114.322 20.2299 114.649 20.8425 115.303 20.8425C115.672 20.8425 116.067 20.6914 116.487 20.3893L117.091 22.605C116.302 23.2428 115.303 23.5618 114.095 23.5618C112.315 23.5618 111.426 22.4372 111.426 20.1879Z" fill="white"/>
<path d="M121.845 23.3106H118.949V11.9803H121.845V13.1133C122.684 12.2236 123.766 11.7788 125.092 11.7788C128.198 11.7788 129.751 13.407 129.751 16.6634V23.3106H126.855V17.167C126.855 15.3877 126.007 14.4981 124.312 14.4981C123.389 14.4981 122.566 14.859 121.845 15.5808V23.3106Z" fill="white"/>
</g>
<defs>
<clipPath id="clip0_1739_7823">
<rect width="129" height="31.5" fill="white" transform="translate(0.75 0.75)"/>
</clipPath>
</defs>
</svg>
