<svg width="199" height="32" viewBox="0 0 199 32" fill="none" xmlns="http://www.w3.org/2000/svg">
<path d="M7.98006 10.6C7.87904 10.95 7.87904 14.1 7.98006 17.6L8.18209 24H12.1722C16.5664 24 19.2938 23.15 20.1524 21.6C21.011 20.05 20.809 19.05 19.4958 17.75C18.4351 16.7 18.3846 16.45 18.9907 15.95C19.4958 15.55 19.6978 14.65 19.5968 13.55C19.4958 12.05 19.1422 11.6 17.6775 10.9C15.5057 9.8 8.2831 9.6 7.98006 10.6ZM16.5664 13.7C16.8694 15.05 15.3542 16 13.0308 16C11.162 16 11.1115 15.95 11.1115 14.2V12.45L13.7379 12.6C15.9098 12.7 16.4653 12.95 16.5664 13.7ZM16.8694 18.8C18.5362 20.4 17.324 21.5 13.7884 21.5H11.1115V19.75V18H13.5864C15.2026 18 16.3643 18.3 16.8694 18.8Z" fill="white"/>
<path d="M30.3047 17V24H35.3554H40.4062V22.75C40.4062 21.55 40.3052 21.5 36.8707 21.5H33.3351V15.75V10H31.8199H30.3047V17Z" fill="white"/>
<path d="M52.1239 11C45.76 14.85 48.5379 24 56.0635 24C60.4577 24 63.6397 21 63.6397 16.8C63.6397 11.45 56.9726 8.1 52.1239 11ZM58.2353 13.05C58.9424 13.35 59.7506 14.15 60.0536 14.85C61.6193 18.2 59.498 21.5 55.811 21.5C53.9927 21.5 52.0229 19.55 51.6693 17.4C51.4168 15.8 51.6188 15.35 52.932 14C54.5483 12.4 56.1645 12.1 58.2353 13.05Z" fill="white"/>
<path d="M76.4188 10.8C71.5196 13.2 71.5701 20.9 76.4693 23.2C78.8432 24.3 82.2272 24.2 84.298 22.95L86.0153 21.95L84.9546 20.9C83.9949 19.95 83.8939 19.95 82.7828 20.7C79.8533 22.7 75.7622 20.55 75.7622 17C75.7622 13.45 80.4089 11.05 82.9343 13.35C83.8434 14.15 83.9444 14.15 84.9546 13.15L86.0153 12.05L84.298 11.05C82.2272 9.80005 78.7422 9.70005 76.4188 10.8Z" fill="white"/>
<path d="M95.459 17V24H96.9742C98.3884 24 98.4894 23.9 98.4894 22.1C98.4894 20.85 98.843 19.85 99.4491 19.3C100.308 18.5 100.459 18.6 102.732 21.25C104.803 23.6 105.358 24 106.874 24H108.641L106.217 21C102.075 15.85 102.176 16.55 105.358 13.1L108.187 10H106.47C105.055 9.95 104.348 10.45 101.671 13.35L98.5399 16.75L98.4894 13.35V10H96.9742H95.459V17Z" fill="white"/>
<path d="M116.673 11.25C116.673 12.4 116.825 12.5 119.198 12.5H121.774L121.623 16.85L121.471 21.25L120.057 21.4C119.249 21.5 118.289 21.3 117.885 20.95C117.279 20.45 116.976 20.5 116.269 21.2C115.461 22 115.461 22.1 116.623 23.05C118.39 24.5 121.926 24.35 123.492 22.75C124.704 21.6 124.754 21.25 124.754 15.75V10H120.714C116.724 10 116.673 10 116.673 11.25Z" fill="white"/>
<path d="M137.128 15.35C135.815 18.35 134.401 21.5 134.047 22.35L133.34 24H134.906C136.168 24 136.572 23.7 137.027 22.5C137.582 21.05 137.683 21 141.068 21C144.452 21 144.502 21.05 145.007 22.5C145.462 23.75 145.815 24 147.229 24H148.896L145.815 17C142.785 10.2 142.633 10.05 141.118 10C139.603 10 139.451 10.2 137.128 15.35ZM141.32 18.4C140.209 18.5 139.199 18.45 139.098 18.35C138.946 18.25 139.35 17.05 139.956 15.7L141.068 13.25L142.179 15.75L143.29 18.25L141.32 18.4Z" fill="white"/>
<path d="M157.584 17V24H159.099H160.564L160.715 19.65L160.867 15.3L164.403 19.65C167.281 23.2 168.191 24 169.352 24H170.716V17V10H169.201H167.686V14C167.686 16.2 167.483 18 167.231 18C166.978 18 165.362 16.2 163.594 14C160.968 10.8 160.109 10.05 158.998 10H157.584V17Z" fill="white"/>
<path d="M181.322 17V24H186.626H191.929V22.75C191.929 21.55 191.828 21.5 188.141 21.5H184.353V19.75V18H187.686C190.818 18 190.969 17.95 190.818 16.85C190.666 15.85 190.414 15.75 187.484 15.75H184.353V14.1V12.5H187.888C191.323 12.5 191.424 12.45 191.424 11.25V10H186.373H181.322V17Z" fill="white"/>
</svg>
