<svg width="97" height="41" viewBox="0 0 97 41" fill="none" xmlns="http://www.w3.org/2000/svg">
<g clip-path="url(#clip0_1645_2408)">
<g clip-path="url(#clip1_1645_2408)">
<path fill-rule="evenodd" clip-rule="evenodd" d="M26.9612 35.9704H8.00588V18.2827L3.52768 21.1556C3.51831 21.1624 3.51071 21.1713 3.50555 21.1816C3.50039 21.1919 3.49782 21.2033 3.49806 21.2149V35.9704V40.1169C3.49806 40.1358 3.50555 40.1539 3.51888 40.1672C3.53221 40.1805 3.55029 40.188 3.56915 40.188H22.4475L26.9612 35.9704Z" fill="white"/>
<path fill-rule="evenodd" clip-rule="evenodd" d="M22.4886 35.9712H8.00555L3.52734 40.171C3.56393 40.1828 3.6033 40.1828 3.63989 40.171H22.4827L22.4886 35.9712Z" fill="white"/>
<path fill-rule="evenodd" clip-rule="evenodd" d="M7.82812 2.94678V8.37275L12.3774 5.28658C12.3954 5.26957 12.4061 5.24618 12.407 5.22142V2.94678H7.8459" fill="white"/>
<path fill-rule="evenodd" clip-rule="evenodd" d="M22.4825 0.577637L0.535741 14.652C0.525163 14.6594 0.516443 14.6691 0.510274 14.6804C0.504105 14.6917 0.500655 14.7043 0.5002 14.7172V20.1254C0.499183 20.1377 0.502066 20.1501 0.508442 20.1607C0.514817 20.1713 0.524365 20.1797 0.535741 20.1846C0.546718 20.1903 0.558909 20.1933 0.571282 20.1933C0.583656 20.1933 0.595847 20.1903 0.606824 20.1846L22.4825 6.38864V0.577637Z" fill="white"/>
<path fill-rule="evenodd" clip-rule="evenodd" d="M27.0613 3.50387L22.4824 6.38864V0.577637L27.0613 3.50387Z" fill="#26539F"/>
<path fill-rule="evenodd" clip-rule="evenodd" d="M27.0317 35.9708L22.4824 40.1825V0.577637L27.0613 3.49795L27.0317 35.9708Z" fill="white"/>
</g>
<path fill-rule="evenodd" clip-rule="evenodd" d="M41.8288 15.1139C41.8288 19.219 40.3657 21.2078 37.3881 21.2078C34.4106 21.2078 33.0758 19.219 33.0758 15.1649C32.9873 14.284 33.0781 13.3944 33.3427 12.5491C33.6073 11.7037 34.0402 10.9198 34.6159 10.244C35.4081 9.52966 36.4469 9.14611 37.5165 9.17309C38.064 9.15019 38.6102 9.24288 39.1191 9.44505C39.6279 9.64723 40.0878 9.95428 40.4684 10.346C41.5065 11.7102 41.992 13.4115 41.8288 15.1139ZM39.262 15.2924C39.2876 12.4622 38.6972 11.0089 37.4651 11.0089C36.233 11.0089 35.694 12.4112 35.694 15.2414C35.694 18.0716 36.2844 19.423 37.5165 19.423C38.7486 19.423 39.2876 17.9951 39.2876 15.2414L39.262 15.2924ZM50.1712 20.6978C50.1748 20.7334 50.1708 20.7693 50.1595 20.8033C50.1482 20.8372 50.1299 20.8684 50.1057 20.8949C50.0815 20.9213 50.052 20.9424 50.019 20.9568C49.9861 20.9712 49.9505 20.9785 49.9145 20.9783H48.2203C48.1845 20.9819 48.1484 20.9779 48.1142 20.9667C48.08 20.9555 48.0486 20.9373 48.022 20.9133C47.9954 20.8892 47.9741 20.8599 47.9597 20.8272C47.9452 20.7945 47.9378 20.7591 47.938 20.7233V15.6239C47.938 14.706 47.5786 14.2215 46.9112 14.2215C46.3402 14.2845 45.8069 14.5358 45.3968 14.9355V20.6978C45.3968 20.7722 45.367 20.8436 45.3141 20.8962C45.2611 20.9488 45.1893 20.9783 45.1144 20.9783H43.4203C43.3845 20.9819 43.3483 20.9779 43.3142 20.9667C43.28 20.9555 43.2486 20.9373 43.222 20.9133C43.1953 20.8892 43.1741 20.8599 43.1596 20.8272C43.1451 20.7945 43.1378 20.7591 43.1379 20.7233V15.1139C43.148 14.4921 43.0255 13.8752 42.7786 13.3036C42.7569 13.2461 42.7569 13.1827 42.7786 13.1252C42.7569 13.0676 42.7569 13.0042 42.7786 12.9467L44.3957 12.4112H44.5754C44.8064 12.4112 44.9861 12.8192 45.2171 13.5841C45.9199 12.9393 46.8284 12.5603 47.784 12.5132C49.2984 12.5132 50.0171 13.4056 50.0171 15.063L50.1712 20.6978ZM58.6932 17.0007C58.7181 17.1184 58.7181 17.24 58.6932 17.3577C58.5932 17.3908 58.4851 17.3908 58.3852 17.3577H53.6108C53.6108 18.7855 54.3038 19.474 55.5616 19.474C56.2611 19.4708 56.949 19.2956 57.5638 18.964C57.6392 18.9421 57.7194 18.9421 57.7948 18.964C57.7948 18.964 57.9231 18.964 57.9745 19.1425L58.3852 20.1369C58.4047 20.1948 58.4047 20.2575 58.3852 20.3154C58.3852 20.3154 58.1285 20.6213 57.6664 20.8508C56.8483 21.1684 55.978 21.3327 55.0996 21.3353C54.1697 21.3722 53.2578 21.0732 52.5327 20.4939C52.0662 20.041 51.7085 19.4894 51.4863 18.8802C51.2641 18.271 51.1831 17.6199 51.2492 16.9752C51.2193 15.7945 51.6413 14.6464 52.43 13.7626C52.7763 13.3591 53.2105 13.0392 53.6997 12.8272C54.1889 12.6151 54.7203 12.5165 55.2536 12.5387C57.5638 12.4622 58.6932 13.9411 58.6932 17.0007ZM56.3317 15.8789C56.3611 15.3758 56.2547 14.8741 56.0236 14.4255C55.9055 14.2718 55.7477 14.1526 55.5669 14.0808C55.3861 14.009 55.1892 13.9871 54.9969 14.0176C54.7731 14.0065 54.5504 14.0551 54.3519 14.1582C54.1533 14.2613 53.9861 14.4152 53.8675 14.604C53.6592 14.9993 53.5367 15.4336 53.5081 15.8789H56.3317ZM68.4473 20.1114C68.4473 20.1114 68.3189 20.4174 68.0366 20.5704C67.2748 21.0638 66.3788 21.313 65.4697 21.2843C64.7314 21.3298 63.9952 21.1673 63.3458 20.8154C62.6964 20.4636 62.1603 19.9367 61.7991 19.2955C61.1532 17.9986 60.8527 16.559 60.9264 15.1139C60.8027 13.4861 61.3075 11.8725 62.3381 10.6009C62.6999 10.1841 63.1496 9.85147 63.6553 9.62673C64.1611 9.40199 64.7104 9.29064 65.2644 9.30058C66.1779 9.34062 67.064 9.6223 67.8312 10.1165C68.0623 10.295 68.1906 10.4225 68.1906 10.5244C68.1906 10.6264 68.1906 10.6519 68.1906 10.6519L67.4719 11.8758C67.4605 11.9139 67.4366 11.9471 67.4041 11.9702C67.3715 11.9933 67.3322 12.0049 67.2922 12.0033C67.102 11.9207 66.9213 11.8182 66.7532 11.6973C66.3529 11.3759 65.856 11.1964 65.3414 11.1874C63.9809 11.1874 63.3392 12.3602 63.3392 14.757C63.2569 16.0274 63.4951 17.2982 64.0323 18.4541C64.1808 18.7377 64.4124 18.97 64.6965 19.1202C64.9806 19.2704 65.3039 19.3316 65.6237 19.2955C66.2702 19.2907 66.8954 19.0657 67.3949 18.6581C67.3949 18.6581 67.3949 18.6581 67.5746 18.6581C67.7542 18.6581 67.5746 18.6581 67.7286 18.8365L68.4473 20.0094V20.1114ZM72.965 20.7488C72.965 20.7488 72.811 21.0038 72.3746 21.0548C71.9939 21.1798 71.5947 21.2401 71.1938 21.2333C70.777 21.2812 70.3559 21.1926 69.9945 20.9809C69.633 20.7691 69.3511 20.4459 69.1917 20.0604C69.0302 19.3844 68.9697 18.6886 69.012 17.9951V9.53005C69.0084 9.49449 69.0124 9.45857 69.0237 9.42463C69.0349 9.39069 69.0533 9.35949 69.0775 9.33304C69.1017 9.30659 69.1312 9.2855 69.1641 9.27112C69.1971 9.25674 69.2327 9.2494 69.2687 9.24958L70.8601 8.94362H71.0912C71.0912 8.94362 71.2709 8.94362 71.2709 9.22409V17.8676C71.2319 18.2406 71.2319 18.6166 71.2709 18.9895C71.2834 19.0887 71.3322 19.1798 71.4079 19.2456C71.4836 19.3114 71.581 19.3473 71.6815 19.3465C71.8775 19.3727 72.076 19.3727 72.2719 19.3465H72.4003H72.5286L72.888 20.7488H72.965ZM83.7458 13.4056C83.7611 13.4642 83.7611 13.5256 83.7458 13.5841L83.2325 14.655C83.2325 14.655 83.1041 14.655 83.0528 14.655C83.0266 14.6737 82.9952 14.6837 82.9629 14.6837C82.9307 14.6837 82.8993 14.6737 82.8731 14.655C82.4421 14.3246 81.9262 14.1214 81.3843 14.0686C80.2036 14.0686 79.6645 15.012 79.6645 16.8988C79.6645 18.7855 80.2549 19.4485 81.4613 19.4485C81.9643 19.421 82.4511 19.2627 82.8731 18.9895C82.8993 18.9708 82.9307 18.9608 82.9629 18.9608C82.9952 18.9608 83.0266 18.9708 83.0528 18.9895L83.4635 19.9839C83.4635 19.9839 83.4635 19.9839 83.4635 20.1624C83.4635 20.3409 83.1555 20.5704 82.6164 20.7488C82.0747 20.9509 81.5009 21.0545 80.9223 21.0548C80.4108 21.1124 79.8929 21.0578 79.405 20.8948C78.9171 20.7318 78.4712 20.4643 78.0987 20.1114C77.4008 19.2271 77.0455 18.1233 77.0976 17.0007C77.0236 15.7442 77.4474 14.5088 78.2784 13.5586C78.6443 13.1434 79.0997 12.8155 79.6108 12.5992C80.1218 12.3829 80.6754 12.2838 81.2303 12.3093C81.7896 12.3347 82.3425 12.4377 82.8731 12.6152C83.4635 12.9467 83.7715 13.1762 83.7715 13.4056H83.7458ZM92.0882 20.2389C92.0882 20.2389 92.0882 20.2389 91.9085 20.4174L90.5737 21.2078C90.5464 21.2234 90.5154 21.2317 90.4839 21.2317C90.4523 21.2317 90.4214 21.2234 90.394 21.2078C90.394 21.2078 90.2657 21.2078 90.163 21.0548L86.8518 17.0007V20.5959C86.8518 20.6702 86.822 20.7416 86.7691 20.7942C86.7161 20.8468 86.6443 20.8763 86.5694 20.8763H84.9009C84.8638 20.8798 84.8264 20.876 84.7908 20.8651C84.7552 20.8541 84.7221 20.8363 84.6935 20.8126C84.6648 20.7889 84.6412 20.7598 84.6239 20.7269C84.6067 20.6941 84.5961 20.6582 84.5929 20.6213V9.42806C84.5894 9.3912 84.5932 9.35401 84.6043 9.31864C84.6153 9.28327 84.6332 9.25041 84.6571 9.22197C84.681 9.19352 84.7103 9.17005 84.7433 9.15291C84.7763 9.13577 84.8125 9.1253 84.8496 9.1221L86.6721 8.76514C86.8004 8.76514 86.8518 8.76514 86.8518 9.0711V15.7004L90.2657 12.4622C90.3064 12.4454 90.35 12.4367 90.394 12.4367C90.4381 12.4367 90.4817 12.4454 90.5224 12.4622H90.7534L91.7031 13.1762C91.7189 13.2033 91.7272 13.2341 91.7272 13.2654C91.7272 13.2967 91.7189 13.3275 91.7031 13.3546C91.7196 13.413 91.7196 13.4747 91.7031 13.5331L88.8539 16.1083L92.1138 19.8054L92.0882 20.2389ZM40.5711 35.5372C40.5711 35.6647 40.4427 35.8432 40.1604 36.0217C39.3899 36.4933 38.4982 36.7324 37.5935 36.7101C36.8538 36.765 36.1139 36.6066 35.4627 36.2537C34.8116 35.9009 34.2768 35.3688 33.9229 34.7213C33.2816 33.3872 32.9902 31.9137 33.0758 30.4378C32.9576 28.8147 33.4517 27.206 34.4619 25.9248C34.8295 25.4948 35.2912 25.1541 35.8117 24.9287C36.3323 24.7033 36.8979 24.5992 37.4651 24.6244C38.3825 24.6644 39.2709 24.9556 40.032 25.4658C40.263 25.6188 40.3914 25.7463 40.3914 25.8738C40.3914 25.8738 40.3914 26.0013 40.3914 25.8738L39.7497 27.1231C39.7582 27.1469 39.7606 27.1724 39.7568 27.1974C39.753 27.2224 39.743 27.246 39.7278 27.2662C39.7125 27.2864 39.6925 27.3025 39.6694 27.3131C39.6464 27.3238 39.621 27.3286 39.5956 27.3271L39.0823 27.0466C38.6693 26.7267 38.1677 26.5398 37.6448 26.5112C36.2844 26.5112 35.6427 27.6841 35.6427 30.0808C35.564 31.3619 35.8112 32.6421 36.3614 33.8034C36.5136 34.0823 36.7468 34.3093 37.0306 34.4548C37.3144 34.6004 37.6358 34.6577 37.9529 34.6193C38.5579 34.5793 39.1339 34.3469 39.5956 33.9564H39.7753C39.7753 33.9564 39.7753 33.9564 39.955 34.1094L40.6481 35.3077C40.6481 35.3077 40.5967 35.3842 40.5967 35.4352L40.5711 35.5372ZM48.2717 32.2481C48.3034 33.3717 47.9605 34.4742 47.2963 35.3842C46.9452 35.7687 46.5112 36.0693 46.0267 36.2635C45.5422 36.4578 45.0197 36.5407 44.4984 36.5061C43.9669 36.5226 43.4379 36.4265 42.9467 36.2243C42.4554 36.0221 42.0131 35.7183 41.6491 35.3332C40.9537 34.3987 40.6006 33.2563 40.6481 32.0951C40.6071 30.9741 40.9611 29.874 41.6491 28.9844C42.006 28.5718 42.4524 28.2449 42.9548 28.0285C43.4573 27.8121 44.0026 27.7118 44.5497 27.7351C45.063 27.7045 45.5766 27.7896 46.0522 27.9838C46.5278 28.1781 46.9531 28.4766 47.2963 28.857C47.9939 29.8086 48.3385 30.9707 48.2717 32.1461V32.2481ZM45.9102 32.2481C45.9708 31.5156 45.8473 30.7796 45.5508 30.1063C45.4477 29.9062 45.2888 29.7396 45.0931 29.6266C44.8974 29.5136 44.6732 29.4589 44.447 29.4689C44.2234 29.4539 44.0005 29.5068 43.808 29.6207C43.6154 29.7345 43.4623 29.9039 43.3689 30.1063C43.0867 30.7569 42.9636 31.4646 43.0096 32.1716C42.9616 32.8786 43.0848 33.5868 43.3689 34.2369C43.5453 34.5281 43.8293 34.7391 44.1603 34.8249C44.4914 34.9107 44.843 34.8644 45.1401 34.6958C45.3375 34.584 45.5048 34.4266 45.6278 34.2369C45.8643 33.5928 45.9606 32.9063 45.9102 32.2226V32.2481ZM56.5627 35.8177C56.5627 35.8177 56.5627 35.8177 56.383 35.9962L54.9969 36.5061H54.7402C54.5605 36.5061 54.3808 36.2257 54.2525 35.6902C53.5276 36.2727 52.6177 36.58 51.6856 36.5571C51.2675 36.5606 50.8548 36.4625 50.4835 36.2714C50.1121 36.0803 49.7935 35.802 49.5551 35.4607C49.0216 34.5022 48.7558 33.4194 48.7851 32.3246C48.7042 31.0765 49.0878 29.8424 49.8631 28.857C50.1427 28.5362 50.4902 28.2808 50.8806 28.1089C51.2711 27.937 51.695 27.8529 52.122 27.8626C52.7146 27.8848 53.2942 28.0418 53.8161 28.3215V24.9304C53.8211 24.8551 53.8518 24.7837 53.9031 24.7281C53.9545 24.6724 54.0234 24.6359 54.0985 24.6244L56.0236 24.2675C56.0236 24.2675 56.2033 24.2675 56.2033 24.5734V34.2624C56.2043 34.7545 56.3093 35.2409 56.5113 35.6902L56.5627 35.8177ZM53.9958 34.4153V29.8003C53.6109 29.618 53.1902 29.5223 52.7637 29.5199C52.5254 29.4978 52.2859 29.5467 52.0757 29.6602C51.8654 29.7737 51.6939 29.9467 51.5829 30.1573C51.2983 30.8251 51.1752 31.55 51.2236 32.2736C51.1977 32.9916 51.302 33.7085 51.5316 34.3899C51.6204 34.5902 51.7689 34.7587 51.9571 34.8727C52.1452 34.9867 52.364 35.0406 52.584 35.0273C53.0823 34.9743 53.5458 34.7486 53.8931 34.3899L53.9958 34.4153ZM64.4173 32.3501C64.4438 32.4676 64.4438 32.5895 64.4173 32.707C64.3141 32.7862 64.1883 32.8309 64.0579 32.8345H59.1552C59.1552 34.2369 59.8739 34.9508 61.106 34.9508C61.8145 34.9301 62.5085 34.7468 63.1339 34.4153C63.1697 34.3974 63.2093 34.3881 63.2494 34.3881C63.2895 34.3881 63.3291 34.3974 63.3649 34.4153C63.3649 34.4153 63.4932 34.4153 63.5446 34.5938L63.9553 35.5882C63.9689 35.616 63.976 35.6465 63.976 35.6775C63.976 35.7084 63.9689 35.7389 63.9553 35.7667C63.9553 35.7667 63.7242 36.0472 63.2365 36.2766C62.4669 36.5768 61.6503 36.7407 60.8237 36.7611C59.8928 36.8051 58.9785 36.5054 58.2568 35.9197C57.7857 35.4691 57.4233 34.9186 57.1966 34.3093C56.9699 33.7 56.8848 33.0476 56.9477 32.4011C56.8943 31.2345 57.2785 30.0898 58.0258 29.1884C58.3616 28.7843 58.786 28.4617 59.2664 28.2452C59.7468 28.0286 60.2707 27.9239 60.798 27.9391C63.1852 27.8116 64.3146 29.2649 64.3146 32.3246L64.4173 32.3501ZM62.1071 31.2282C62.1317 30.7255 62.0256 30.225 61.7991 29.7749C61.6809 29.6232 61.5291 29.5006 61.3555 29.4166C61.1819 29.3326 60.9911 29.2894 60.798 29.2904C60.5738 29.2766 60.3501 29.3239 60.151 29.4273C59.952 29.5307 59.7851 29.6861 59.6686 29.8768C59.4679 30.2827 59.3542 30.7255 59.3349 31.1772H62.1071V31.2282ZM75.9939 12.7427H72.657C72.6199 12.7392 72.5824 12.743 72.5468 12.754C72.5112 12.7649 72.4781 12.7827 72.4495 12.8065C72.4208 12.8302 72.3972 12.8593 72.38 12.8921C72.3627 12.9249 72.3522 12.9608 72.3489 12.9977V13.9921C72.3479 14.0651 72.3732 14.1361 72.4203 14.1922C72.4674 14.2483 72.5331 14.2859 72.6056 14.298H73.9404V20.6978C73.9404 20.7722 73.9701 20.8436 74.0231 20.8962C74.076 20.9488 74.1479 20.9783 74.2227 20.9783H75.8912C75.9283 20.9818 75.9658 20.978 76.0014 20.967C76.037 20.9561 76.0701 20.9383 76.0987 20.9146C76.1273 20.8909 76.151 20.8618 76.1682 20.8289C76.1855 20.7961 76.196 20.7602 76.1992 20.7233V13.0742C76.2075 13.0311 76.2055 12.9867 76.1934 12.9445C76.1813 12.9023 76.1593 12.8635 76.1294 12.8313C76.0994 12.799 76.0623 12.7742 76.0209 12.7588C75.9795 12.7435 75.9351 12.7379 75.8912 12.7427H75.9939ZM75.0185 8.94362C74.8364 8.94024 74.6555 8.97251 74.486 9.0386C74.3166 9.10469 74.1619 9.2033 74.0308 9.32879C73.8997 9.45428 73.7947 9.6042 73.722 9.76998C73.6492 9.93576 73.61 10.1142 73.6067 10.295C73.5788 10.5703 73.6618 10.8453 73.8377 11.0599L75.0185 10.295L74.5564 11.5953C74.708 11.6342 74.867 11.6342 75.0185 11.5953C75.3793 11.5953 75.7253 11.453 75.9805 11.1995C76.2356 10.9461 76.3789 10.6024 76.3789 10.244C76.3789 9.88557 76.2356 9.54185 75.9805 9.28843C75.7253 9.035 75.3793 8.89262 75.0185 8.89262V8.94362Z" fill="white"/>
<path d="M41.8288 15.1139C41.8288 19.219 40.3657 21.2078 37.3881 21.2078C34.4106 21.2078 33.0758 19.219 33.0758 15.1649C32.9873 14.284 33.0781 13.3944 33.3427 12.5491C33.6073 11.7037 34.0402 10.9198 34.6159 10.244C35.4081 9.52966 36.4469 9.14611 37.5165 9.17309C38.064 9.15019 38.6102 9.24288 39.1191 9.44505C39.6279 9.64723 40.0878 9.95428 40.4684 10.346C41.5065 11.7102 41.992 13.4115 41.8288 15.1139ZM39.262 15.2924C39.2876 12.4622 38.6972 11.0089 37.4651 11.0089C36.233 11.0089 35.694 12.4112 35.694 15.2414C35.694 18.0716 36.2844 19.423 37.5165 19.423C38.7486 19.423 39.2876 17.9951 39.2876 15.2414L39.262 15.2924ZM50.1712 20.6978C50.1748 20.7334 50.1708 20.7693 50.1595 20.8033C50.1482 20.8372 50.1299 20.8684 50.1057 20.8949C50.0815 20.9213 50.052 20.9424 50.019 20.9568C49.9861 20.9712 49.9505 20.9785 49.9145 20.9783H48.2203C48.1845 20.9819 48.1484 20.9779 48.1142 20.9667C48.08 20.9555 48.0486 20.9373 48.022 20.9133C47.9954 20.8892 47.9741 20.8599 47.9597 20.8272C47.9452 20.7945 47.9378 20.7591 47.938 20.7233V15.6239C47.938 14.706 47.5786 14.2215 46.9112 14.2215C46.3402 14.2845 45.8069 14.5358 45.3968 14.9355V20.6978C45.3968 20.7722 45.367 20.8436 45.3141 20.8962C45.2611 20.9488 45.1893 20.9783 45.1144 20.9783H43.4203C43.3845 20.9819 43.3483 20.9779 43.3142 20.9667C43.28 20.9555 43.2486 20.9373 43.222 20.9133C43.1953 20.8892 43.1741 20.8599 43.1596 20.8272C43.1451 20.7945 43.1378 20.7591 43.1379 20.7233V15.1139C43.148 14.4921 43.0255 13.8752 42.7786 13.3036C42.7569 13.2461 42.7569 13.1827 42.7786 13.1252C42.7569 13.0676 42.7569 13.0042 42.7786 12.9467L44.3957 12.4112H44.5754C44.8064 12.4112 44.9861 12.8192 45.2171 13.5841C45.9199 12.9393 46.8284 12.5603 47.784 12.5132C49.2984 12.5132 50.0171 13.4056 50.0171 15.063L50.1712 20.6978ZM58.6932 17.0007C58.7181 17.1184 58.7181 17.24 58.6932 17.3577C58.5932 17.3908 58.4851 17.3908 58.3852 17.3577H53.6108C53.6108 18.7855 54.3038 19.474 55.5616 19.474C56.2611 19.4708 56.949 19.2956 57.5638 18.964C57.6392 18.9421 57.7194 18.9421 57.7948 18.964C57.7948 18.964 57.9231 18.964 57.9745 19.1425L58.3852 20.1369C58.4047 20.1948 58.4047 20.2575 58.3852 20.3154C58.3852 20.3154 58.1285 20.6213 57.6664 20.8508C56.8483 21.1684 55.978 21.3327 55.0996 21.3353C54.1697 21.3722 53.2578 21.0732 52.5327 20.4939C52.0662 20.041 51.7085 19.4894 51.4863 18.8802C51.2641 18.271 51.1831 17.6199 51.2492 16.9752C51.2193 15.7945 51.6413 14.6464 52.43 13.7626C52.7763 13.3591 53.2105 13.0392 53.6997 12.8272C54.1889 12.6151 54.7203 12.5165 55.2536 12.5387C57.5638 12.4622 58.6932 13.9411 58.6932 17.0007ZM56.3317 15.8789C56.3611 15.3758 56.2547 14.8741 56.0236 14.4255C55.9055 14.2718 55.7477 14.1526 55.5669 14.0808C55.3861 14.009 55.1892 13.9871 54.9969 14.0176C54.7731 14.0065 54.5504 14.0551 54.3519 14.1582C54.1533 14.2613 53.9861 14.4152 53.8675 14.604C53.6592 14.9993 53.5367 15.4336 53.5081 15.8789H56.3317ZM68.4473 20.1114C68.4473 20.1114 68.3189 20.4174 68.0366 20.5704C67.2748 21.0638 66.3788 21.313 65.4697 21.2843C64.7314 21.3298 63.9952 21.1673 63.3458 20.8154C62.6964 20.4636 62.1603 19.9367 61.7991 19.2955C61.1532 17.9986 60.8527 16.559 60.9264 15.1139C60.8027 13.4861 61.3075 11.8725 62.3381 10.6009C62.6999 10.1841 63.1496 9.85147 63.6553 9.62673C64.1611 9.40199 64.7104 9.29064 65.2644 9.30058C66.1779 9.34062 67.064 9.6223 67.8312 10.1165C68.0623 10.295 68.1906 10.4225 68.1906 10.5244C68.1906 10.6264 68.1906 10.6519 68.1906 10.6519L67.4719 11.8758C67.4605 11.9139 67.4366 11.9471 67.4041 11.9702C67.3715 11.9933 67.3322 12.0049 67.2922 12.0033C67.102 11.9207 66.9213 11.8182 66.7532 11.6973C66.3529 11.3759 65.856 11.1964 65.3414 11.1874C63.9809 11.1874 63.3392 12.3602 63.3392 14.757C63.2569 16.0274 63.4951 17.2982 64.0323 18.4541C64.1808 18.7377 64.4124 18.97 64.6965 19.1202C64.9806 19.2704 65.3039 19.3316 65.6237 19.2955C66.2702 19.2907 66.8954 19.0657 67.3949 18.6581C67.3949 18.6581 67.3949 18.6581 67.5746 18.6581C67.7542 18.6581 67.5746 18.6581 67.7286 18.8365L68.4473 20.0094V20.1114ZM72.965 20.7488C72.965 20.7488 72.811 21.0038 72.3746 21.0548C71.9939 21.1798 71.5947 21.2401 71.1938 21.2333C70.777 21.2812 70.3559 21.1926 69.9945 20.9809C69.633 20.7691 69.3511 20.4459 69.1917 20.0604C69.0302 19.3844 68.9697 18.6886 69.012 17.9951V9.53005C69.0084 9.49449 69.0124 9.45857 69.0237 9.42463C69.0349 9.39069 69.0533 9.35949 69.0775 9.33304C69.1017 9.30659 69.1312 9.2855 69.1641 9.27112C69.1971 9.25674 69.2327 9.2494 69.2687 9.24958L70.8601 8.94362H71.0912C71.0912 8.94362 71.2709 8.94362 71.2709 9.22409V17.8676C71.2319 18.2406 71.2319 18.6166 71.2709 18.9895C71.2834 19.0887 71.3322 19.1798 71.4079 19.2456C71.4836 19.3114 71.581 19.3473 71.6815 19.3465C71.8775 19.3727 72.076 19.3727 72.2719 19.3465H72.4003H72.5286L72.888 20.7488H72.965ZM83.7458 13.4056C83.7611 13.4642 83.7611 13.5256 83.7458 13.5841L83.2325 14.655C83.2325 14.655 83.1041 14.655 83.0528 14.655C83.0266 14.6737 82.9952 14.6837 82.9629 14.6837C82.9307 14.6837 82.8993 14.6737 82.8731 14.655C82.4421 14.3246 81.9262 14.1214 81.3843 14.0686C80.2036 14.0686 79.6645 15.012 79.6645 16.8988C79.6645 18.7855 80.2549 19.4485 81.4613 19.4485C81.9643 19.421 82.4511 19.2627 82.8731 18.9895C82.8993 18.9708 82.9307 18.9608 82.9629 18.9608C82.9952 18.9608 83.0266 18.9708 83.0528 18.9895L83.4635 19.9839C83.4635 19.9839 83.4635 19.9839 83.4635 20.1624C83.4635 20.3409 83.1555 20.5704 82.6164 20.7488C82.0747 20.9509 81.5009 21.0545 80.9223 21.0548C80.4108 21.1124 79.8929 21.0578 79.405 20.8948C78.9171 20.7318 78.4712 20.4643 78.0987 20.1114C77.4008 19.2271 77.0455 18.1233 77.0976 17.0007C77.0236 15.7442 77.4474 14.5088 78.2784 13.5586C78.6443 13.1434 79.0997 12.8155 79.6108 12.5992C80.1218 12.3829 80.6754 12.2838 81.2303 12.3093C81.7896 12.3347 82.3425 12.4377 82.8731 12.6152C83.4635 12.9467 83.7715 13.1762 83.7715 13.4056H83.7458ZM92.0882 20.2389C92.0882 20.2389 92.0882 20.2389 91.9085 20.4174L90.5737 21.2078C90.5464 21.2234 90.5154 21.2317 90.4839 21.2317C90.4523 21.2317 90.4214 21.2234 90.394 21.2078C90.394 21.2078 90.2657 21.2078 90.163 21.0548L86.8518 17.0007V20.5959C86.8518 20.6702 86.822 20.7416 86.7691 20.7942C86.7161 20.8468 86.6443 20.8763 86.5694 20.8763H84.9009C84.8638 20.8798 84.8264 20.876 84.7908 20.8651C84.7552 20.8541 84.7221 20.8363 84.6935 20.8126C84.6648 20.7889 84.6412 20.7598 84.6239 20.7269C84.6067 20.6941 84.5961 20.6582 84.5929 20.6213V9.42806C84.5894 9.3912 84.5932 9.35401 84.6043 9.31864C84.6153 9.28327 84.6332 9.25041 84.6571 9.22197C84.681 9.19352 84.7103 9.17005 84.7433 9.15291C84.7763 9.13577 84.8125 9.1253 84.8496 9.1221L86.6721 8.76514C86.8004 8.76514 86.8518 8.76514 86.8518 9.0711V15.7004L90.2657 12.4622C90.3064 12.4454 90.35 12.4367 90.394 12.4367C90.4381 12.4367 90.4817 12.4454 90.5224 12.4622H90.7534L91.7031 13.1762C91.7189 13.2033 91.7272 13.2341 91.7272 13.2654C91.7272 13.2967 91.7189 13.3275 91.7031 13.3546C91.7196 13.413 91.7196 13.4747 91.7031 13.5331L88.8539 16.1083L92.1138 19.8054L92.0882 20.2389ZM40.5711 35.5372C40.5711 35.6647 40.4427 35.8432 40.1604 36.0217C39.3899 36.4933 38.4982 36.7324 37.5935 36.7101C36.8538 36.765 36.1139 36.6066 35.4627 36.2537C34.8116 35.9009 34.2768 35.3688 33.9229 34.7213C33.2816 33.3872 32.9902 31.9137 33.0758 30.4378C32.9576 28.8147 33.4517 27.206 34.4619 25.9248C34.8295 25.4948 35.2912 25.1541 35.8117 24.9287C36.3323 24.7033 36.8979 24.5992 37.4651 24.6244C38.3825 24.6644 39.2709 24.9556 40.032 25.4658C40.263 25.6188 40.3914 25.7463 40.3914 25.8738C40.3914 25.8738 40.3914 26.0013 40.3914 25.8738L39.7497 27.1231C39.7582 27.1469 39.7606 27.1724 39.7568 27.1974C39.753 27.2224 39.743 27.246 39.7278 27.2662C39.7125 27.2864 39.6925 27.3025 39.6694 27.3131C39.6464 27.3238 39.621 27.3286 39.5956 27.3271L39.0823 27.0466C38.6693 26.7267 38.1677 26.5398 37.6448 26.5112C36.2844 26.5112 35.6427 27.6841 35.6427 30.0808C35.564 31.3619 35.8112 32.6421 36.3614 33.8034C36.5136 34.0823 36.7468 34.3093 37.0306 34.4548C37.3144 34.6004 37.6358 34.6577 37.9529 34.6193C38.5579 34.5793 39.1339 34.3469 39.5956 33.9564H39.7753C39.7753 33.9564 39.7753 33.9564 39.955 34.1094L40.6481 35.3077C40.6481 35.3077 40.5967 35.3842 40.5967 35.4352L40.5711 35.5372ZM48.2717 32.2481C48.3034 33.3717 47.9605 34.4742 47.2963 35.3842C46.9452 35.7687 46.5112 36.0693 46.0267 36.2635C45.5422 36.4578 45.0197 36.5407 44.4984 36.5061C43.9669 36.5226 43.4379 36.4265 42.9467 36.2243C42.4554 36.0221 42.0131 35.7183 41.6491 35.3332C40.9537 34.3987 40.6006 33.2563 40.6481 32.0951C40.6071 30.9741 40.9611 29.874 41.6491 28.9844C42.006 28.5718 42.4524 28.2449 42.9548 28.0285C43.4573 27.8121 44.0026 27.7118 44.5497 27.7351C45.063 27.7045 45.5766 27.7896 46.0522 27.9838C46.5278 28.1781 46.9531 28.4766 47.2963 28.857C47.9939 29.8086 48.3385 30.9707 48.2717 32.1461V32.2481ZM45.9102 32.2481C45.9708 31.5156 45.8473 30.7796 45.5508 30.1063C45.4477 29.9062 45.2888 29.7396 45.0931 29.6266C44.8974 29.5136 44.6732 29.4589 44.447 29.4689C44.2234 29.4539 44.0005 29.5068 43.808 29.6207C43.6154 29.7345 43.4623 29.9039 43.3689 30.1063C43.0867 30.7569 42.9636 31.4646 43.0096 32.1716C42.9616 32.8786 43.0848 33.5868 43.3689 34.2369C43.5453 34.5281 43.8293 34.7391 44.1603 34.8249C44.4914 34.9107 44.843 34.8644 45.1401 34.6958C45.3375 34.584 45.5048 34.4266 45.6278 34.2369C45.8643 33.5928 45.9606 32.9063 45.9102 32.2226V32.2481ZM56.5627 35.8177C56.5627 35.8177 56.5627 35.8177 56.383 35.9962L54.9969 36.5061H54.7402C54.5605 36.5061 54.3808 36.2257 54.2525 35.6902C53.5276 36.2727 52.6177 36.58 51.6856 36.5571C51.2675 36.5606 50.8548 36.4625 50.4835 36.2714C50.1121 36.0803 49.7935 35.802 49.5551 35.4607C49.0216 34.5022 48.7558 33.4194 48.7851 32.3246C48.7042 31.0765 49.0878 29.8424 49.8631 28.857C50.1427 28.5362 50.4902 28.2808 50.8806 28.1089C51.2711 27.937 51.695 27.8529 52.122 27.8626C52.7146 27.8848 53.2942 28.0418 53.8161 28.3215V24.9304C53.8211 24.8551 53.8518 24.7837 53.9031 24.7281C53.9545 24.6724 54.0234 24.6359 54.0985 24.6244L56.0236 24.2675C56.0236 24.2675 56.2033 24.2675 56.2033 24.5734V34.2624C56.2043 34.7545 56.3093 35.2409 56.5113 35.6902L56.5627 35.8177ZM53.9958 34.4153V29.8003C53.6109 29.618 53.1902 29.5223 52.7637 29.5199C52.5254 29.4978 52.2859 29.5467 52.0757 29.6602C51.8654 29.7737 51.6939 29.9467 51.5829 30.1573C51.2983 30.8251 51.1752 31.55 51.2236 32.2736C51.1977 32.9916 51.302 33.7085 51.5316 34.3899C51.6204 34.5902 51.7689 34.7587 51.9571 34.8727C52.1452 34.9867 52.364 35.0406 52.584 35.0273C53.0823 34.9743 53.5458 34.7486 53.8931 34.3899L53.9958 34.4153ZM64.4173 32.3501C64.4438 32.4676 64.4438 32.5895 64.4173 32.707C64.3141 32.7862 64.1883 32.8309 64.0579 32.8345H59.1552C59.1552 34.2369 59.8739 34.9508 61.106 34.9508C61.8145 34.9301 62.5085 34.7468 63.1339 34.4153C63.1697 34.3974 63.2093 34.3881 63.2494 34.3881C63.2895 34.3881 63.3291 34.3974 63.3649 34.4153C63.3649 34.4153 63.4932 34.4153 63.5446 34.5938L63.9553 35.5882C63.9689 35.616 63.976 35.6465 63.976 35.6775C63.976 35.7084 63.9689 35.7389 63.9553 35.7667C63.9553 35.7667 63.7242 36.0472 63.2365 36.2766C62.4669 36.5768 61.6503 36.7407 60.8237 36.7611C59.8928 36.8051 58.9785 36.5054 58.2568 35.9197C57.7857 35.4691 57.4233 34.9186 57.1966 34.3093C56.9699 33.7 56.8848 33.0476 56.9477 32.4011C56.8943 31.2345 57.2785 30.0898 58.0258 29.1884C58.3616 28.7843 58.786 28.4617 59.2664 28.2452C59.7468 28.0286 60.2707 27.9239 60.798 27.9391C63.1852 27.8116 64.3146 29.2649 64.3146 32.3246L64.4173 32.3501ZM62.1071 31.2282C62.1317 30.7255 62.0256 30.225 61.7991 29.7749C61.6809 29.6232 61.5291 29.5006 61.3555 29.4166C61.1819 29.3326 60.9911 29.2894 60.798 29.2904C60.5738 29.2766 60.3501 29.3239 60.151 29.4273C59.952 29.5307 59.7851 29.6861 59.6686 29.8768C59.4679 30.2827 59.3542 30.7255 59.3349 31.1772H62.1071V31.2282ZM75.9939 12.7427H72.657C72.6199 12.7392 72.5824 12.743 72.5468 12.754C72.5112 12.7649 72.4781 12.7827 72.4495 12.8065C72.4208 12.8302 72.3972 12.8593 72.38 12.8921C72.3627 12.9249 72.3522 12.9608 72.3489 12.9977V13.9921C72.3479 14.0651 72.3732 14.1361 72.4203 14.1922C72.4674 14.2483 72.5331 14.2859 72.6056 14.298H73.9404V20.6978C73.9404 20.7722 73.9701 20.8436 74.0231 20.8962C74.076 20.9488 74.1479 20.9783 74.2227 20.9783H75.8912C75.9283 20.9818 75.9658 20.978 76.0014 20.967C76.037 20.9561 76.0701 20.9383 76.0987 20.9146C76.1273 20.8909 76.151 20.8618 76.1682 20.8289C76.1855 20.7961 76.196 20.7602 76.1992 20.7233V13.0742C76.2075 13.0311 76.2055 12.9867 76.1934 12.9445C76.1813 12.9023 76.1593 12.8635 76.1294 12.8313C76.0994 12.799 76.0623 12.7742 76.0209 12.7588C75.9795 12.7435 75.9351 12.7379 75.8912 12.7427H75.9939ZM75.0185 8.94362C74.8364 8.94024 74.6555 8.97251 74.486 9.0386C74.3166 9.10469 74.1619 9.2033 74.0308 9.32879C73.8997 9.45428 73.7947 9.6042 73.722 9.76998C73.6492 9.93576 73.61 10.1142 73.6067 10.295C73.5788 10.5703 73.6618 10.8453 73.8377 11.0599L75.0185 10.295L74.5564 11.5953C74.708 11.6342 74.867 11.6342 75.0185 11.5953C75.3793 11.5953 75.7253 11.453 75.9805 11.1995C76.2356 10.9461 76.3789 10.6024 76.3789 10.244C76.3789 9.88557 76.2356 9.54185 75.9805 9.28843C75.7253 9.035 75.3793 8.89262 75.0185 8.89262V8.94362Z" fill="white"/>
</g>
<defs>
<clipPath id="clip0_1645_2408">
<rect width="96" height="40" fill="white" transform="translate(0.5 0.577637)"/>
</clipPath>
<clipPath id="clip1_1645_2408">
<rect width="26.656" height="39.6878" fill="white" transform="translate(0.5 0.577637)"/>
</clipPath>
</defs>
</svg>
