<svg width="124" height="30" viewBox="0 0 124 30" fill="none" xmlns="http://www.w3.org/2000/svg">
<g clip-path="url(#clip0_1741_8532)">
<path d="M3.2793 29.0142C4.03392 26.8325 6.13536 24.8532 8.54789 24.6706C8.54789 24.6706 19.726 24.5625 23.9189 24.5625C25.8892 24.5625 27.4434 23.6008 28.2492 22.7286C28.9114 21.936 29.751 20.5705 29.751 18.2794C29.751 14.2378 29.7997 13.8774 29.7135 11.277C29.7135 7.69502 26.8986 6.14444 23.5903 5.84625C20.4556 5.84625 12.366 5.84625 12.366 5.84625V1.27529C18.664 1.27529 20.8617 1.21689 23.7302 1.21689C31.1378 1.21689 35.172 5.7978 35.2794 10.8583C35.2794 13.7631 35.2982 14.4328 35.2982 19.1454C35.2982 24.0332 31.7899 29.054 23.8777 29.054" fill="white"/>
<path d="M12.249 12.5828V17.5302C12.249 17.9651 12.6038 18.3179 13.0411 18.3179H18.0161C18.4534 18.3179 18.8082 17.9651 18.8082 17.5302V12.5828C18.8082 12.1479 18.4534 11.7951 18.0161 11.7951H13.0411C12.6026 11.7951 12.249 12.1479 12.249 12.5828Z" fill="white"/>
<path d="M0 17.6383V21.5061C0 21.9409 0.354821 22.2938 0.792101 22.2938H4.68139C5.11867 22.2938 5.47349 21.9409 5.47349 21.5061V17.6383C5.47349 17.2034 5.11867 16.8506 4.68139 16.8506H0.792101C0.354821 16.8506 0 17.2034 0 17.6383Z" fill="white"/>
<path d="M20.874 9.87179V12.5356C20.874 12.7655 21.0614 12.9531 21.2938 12.9531H23.9725C24.2036 12.9531 24.3923 12.7667 24.3923 12.5356V9.87179C24.3923 9.64194 24.2048 9.45433 23.9725 9.45433H21.2938C21.0614 9.45557 20.874 9.64194 20.874 9.87179Z" fill="white"/>
<path d="M3.07129 7.6354V10.2992C3.07129 10.5291 3.25869 10.7167 3.49108 10.7167H6.16973C6.40086 10.7167 6.58952 10.5303 6.58952 10.2992V7.6354C6.58952 7.40555 6.40211 7.21794 6.16973 7.21794H3.48983C3.25869 7.21918 3.07129 7.40555 3.07129 7.6354Z" fill="white"/>
<path d="M7.31836 12.6809V14.3297C7.31836 14.5595 7.50576 14.7471 7.73815 14.7471H9.39481C9.62595 14.7471 9.8146 14.5608 9.8146 14.3297V12.6809C9.8146 12.4511 9.6272 12.2635 9.39481 12.2635H7.7369C7.50576 12.2635 7.31836 12.4498 7.31836 12.6809Z" fill="white"/>
<path d="M64.3447 22.8579C64.4459 22.8952 64.4958 23.007 64.4571 23.1064C64.1248 23.9488 62.5431 27.4761 58.9674 28.5732C55.1068 29.9572 49.2535 29.8529 45.9115 27.8252C43.7938 26.5405 41.1976 24.5439 41.1976 18.5391C41.1976 16.1263 41.0614 13.1631 41.1726 10.5663C41.3562 6.26125 42.5132 5.06229 43.8712 3.71175C45.0794 2.5103 47.0846 1.5561 48.2778 1.21567C51.9072 0.178223 58.4714 -0.19824 62.0995 3.3912C63.5276 4.80386 64.3259 6.68866 64.5533 7.28006C64.592 7.38194 64.5383 7.495 64.4346 7.52979L59.6408 9.15864C59.5471 9.19095 59.4434 9.14746 59.4021 9.05676C59.1698 8.54488 58.3752 6.92472 57.2657 6.02146C54.8969 4.27085 51.3612 4.59264 49.3697 5.72824C47.6956 6.68244 46.9122 8.53991 46.9122 10.4409C46.9122 13.0202 46.8635 16.1685 46.8572 19.0324C46.8547 20.1953 47.1483 21.4179 47.7655 22.4504C49.4434 25.2546 53.4164 26.2436 56.8572 24.2619C58.4039 23.2592 59.0273 21.695 59.2048 21.1532C59.2385 21.0489 59.3534 20.9955 59.4559 21.034L64.3447 22.8579Z" fill="white"/>
<path d="M96.7578 28.9732L106.61 1.28519H113.349L123.047 29.0229L117.8 29.0788C117.25 29.085 116.763 28.7247 116.612 28.1991L110.502 7.10482C110.445 6.90728 110.262 6.77061 110.056 6.77061C109.85 6.77061 109.668 6.90603 109.61 7.10358L103.454 28.0972C103.302 28.6166 102.824 28.9732 102.28 28.9732H96.7578Z" fill="white"/>
<path d="M68.321 28.8241L76.9117 15.2578L67.6514 0.967178L73.9769 0.993269C74.1693 0.994511 74.3467 1.09639 74.4417 1.26288L80.1388 11.2236L85.826 1.25418C85.9072 1.11255 86.0571 1.02557 86.2208 1.02682L92.9849 1.05788L74.8452 28.4874C74.6816 28.7347 74.4017 28.8825 74.1044 28.88L68.321 28.8241Z" fill="white"/>
<path d="M82.5684 22.9212L85.5981 28.4501C85.8155 28.8477 86.2365 29.0937 86.6925 29.0887L92.4984 29.0303L85.5494 18.2943L82.5684 22.9212Z" fill="white"/>
</g>
<defs>
<clipPath id="clip0_1741_8532">
<rect width="124" height="29" fill="white" transform="matrix(1 0 0 -1 0 29.5)"/>
</clipPath>
</defs>
</svg>
