<svg width="24" height="18" viewBox="0 0 24 18" fill="none" xmlns="http://www.w3.org/2000/svg">
<g id="arrow-right-long-orange-99763bec.svg" clip-path="url(#clip0_640_11021)">
<path id="Vector" d="M0.685714 8.54286C0.307005 8.54286 0 8.84985 0 9.22857C0 9.6073 0.307005 9.91429 0.685714 9.91429V8.54286ZM22.2857 9.91429C22.6644 9.91429 22.9714 9.6073 22.9714 9.22857C22.9714 8.84985 22.6644 8.54286 22.2857 8.54286V9.91429ZM23.3143 9.22857L23.7776 9.73408C23.9194 9.60414 24 9.42078 24 9.22857C24 9.03637 23.9194 8.85301 23.7776 8.72307L23.3143 9.22857ZM15.5491 1.18024C15.2699 0.924338 14.8361 0.943197 14.5802 1.22236C14.3244 1.50153 14.3432 1.93529 14.6224 2.19119L15.5491 1.18024ZM14.6224 16.2659C14.3432 16.5218 14.3244 16.9556 14.5802 17.2348C14.8361 17.5139 15.2699 17.5328 15.5491 17.2769L14.6224 16.2659ZM0.685714 9.91429H22.2857V8.54286H0.685714V9.91429ZM23.7776 8.72307L15.5491 1.18024L14.6224 2.19119L22.8509 9.73408L23.7776 8.72307ZM22.8509 8.72307L14.6224 16.2659L15.5491 17.2769L23.7776 9.73408L22.8509 8.72307Z" fill="#7D56E7"/>
</g>
<defs>
<clipPath id="clip0_640_11021">
<rect width="24" height="16.4571" fill="white" transform="translate(0 0.771484)"/>
</clipPath>
</defs>
</svg>
