<svg width="156" height="40" viewBox="0 0 156 40" fill="none" xmlns="http://www.w3.org/2000/svg">
<g clip-path="url(#clip0_938_12892)">
<path fill-rule="evenodd" clip-rule="evenodd" d="M26.4612 35.3928H7.50588V17.7051L3.02768 20.578C3.01831 20.5847 3.01071 20.5936 3.00555 20.604C3.00039 20.6143 2.99782 20.6257 2.99806 20.6372V35.3928V39.5393C2.99806 39.5581 3.00555 39.5762 3.01888 39.5896C3.03221 39.6029 3.05029 39.6104 3.06915 39.6104H21.9475L26.4612 35.3928Z" fill="#FDB728"/>
<path fill-rule="evenodd" clip-rule="evenodd" d="M21.9886 35.3945H7.50555L3.02734 39.5943C3.06393 39.6061 3.1033 39.6061 3.13989 39.5943H21.9827L21.9886 35.3945Z" fill="url(#paint0_linear_938_12892)"/>
<path fill-rule="evenodd" clip-rule="evenodd" d="M7.32812 2.36914V7.79512L11.8774 4.70894C11.8954 4.69193 11.9061 4.66854 11.907 4.64379V2.36914H7.3459" fill="#FDB728"/>
<path fill-rule="evenodd" clip-rule="evenodd" d="M21.9825 0L0.0357409 14.0744C0.0251626 14.0817 0.016443 14.0914 0.0102738 14.1027C0.0041046 14.1141 0.000655361 14.1266 0.000199639 14.1395V19.5477C-0.000816794 19.5601 0.00206577 19.5724 0.00844153 19.5831C0.0148173 19.5937 0.0243651 19.602 0.0357409 19.607C0.0467176 19.6127 0.0589088 19.6157 0.0712822 19.6157C0.0836556 19.6157 0.0958468 19.6127 0.106824 19.607L21.9825 5.81101V0Z" fill="#73A5D8"/>
<path fill-rule="evenodd" clip-rule="evenodd" d="M26.5613 2.92623L21.9824 5.811V0L26.5613 2.92623Z" fill="#26539F"/>
<path fill-rule="evenodd" clip-rule="evenodd" d="M26.5317 35.3932L21.9824 39.6049V0L26.5613 2.92031L26.5317 35.3932Z" fill="url(#paint1_linear_938_12892)"/>
</g>
<path fill-rule="evenodd" clip-rule="evenodd" d="M41.3288 14.5363C41.3288 18.6414 39.8657 20.6301 36.8881 20.6301C33.9106 20.6301 32.5758 18.6414 32.5758 14.5873C32.4873 13.7064 32.5781 12.8168 32.8427 11.9714C33.1073 11.1261 33.5402 10.3422 34.1159 9.66634C34.9081 8.95202 35.9469 8.56848 37.0165 8.59546C37.564 8.57255 38.1102 8.66524 38.6191 8.86742C39.1279 9.06959 39.5878 9.37665 39.9684 9.76833C41.0065 11.1326 41.492 12.8339 41.3288 14.5363ZM38.762 14.7148C38.7876 11.8846 38.1972 10.4313 36.9651 10.4313C35.733 10.4313 35.194 11.8336 35.194 14.6638C35.194 17.494 35.7844 18.8453 37.0165 18.8453C38.2486 18.8453 38.7876 17.4175 38.7876 14.6638L38.762 14.7148ZM49.6712 20.1202C49.6748 20.1558 49.6708 20.1917 49.6595 20.2256C49.6482 20.2596 49.6299 20.2908 49.6057 20.3172C49.5815 20.3437 49.552 20.3648 49.519 20.3791C49.4861 20.3935 49.4505 20.4009 49.4145 20.4007H47.7203C47.6845 20.4042 47.6484 20.4003 47.6142 20.3891C47.58 20.3779 47.5486 20.3597 47.522 20.3356C47.4954 20.3116 47.4741 20.2823 47.4597 20.2495C47.4452 20.2168 47.4378 20.1814 47.438 20.1457V15.0463C47.438 14.1284 47.0786 13.6439 46.4112 13.6439C45.8402 13.7068 45.3069 13.9582 44.8968 14.3578V20.1202C44.8968 20.1946 44.867 20.2659 44.8141 20.3185C44.7611 20.3711 44.6893 20.4007 44.6144 20.4007H42.9203C42.8845 20.4042 42.8483 20.4003 42.8142 20.3891C42.78 20.3779 42.7486 20.3597 42.722 20.3356C42.6953 20.3116 42.6741 20.2823 42.6596 20.2495C42.6451 20.2168 42.6378 20.1814 42.6379 20.1457V14.5363C42.648 13.9145 42.5255 13.2975 42.2786 12.726C42.2569 12.6685 42.2569 12.6051 42.2786 12.5475C42.2569 12.49 42.2569 12.4266 42.2786 12.369L43.8957 11.8336H44.0754C44.3064 11.8336 44.4861 12.2416 44.7171 13.0065C45.4199 12.3617 46.3284 11.9827 47.284 11.9356C48.7984 11.9356 49.5171 12.828 49.5171 14.4853L49.6712 20.1202ZM58.1932 16.4231C58.2181 16.5408 58.2181 16.6624 58.1932 16.7801C58.0932 16.8131 57.9851 16.8131 57.8852 16.7801H53.1108C53.1108 18.2079 53.8038 18.8963 55.0616 18.8963C55.7611 18.8932 56.449 18.718 57.0638 18.3864C57.1392 18.3644 57.2194 18.3644 57.2948 18.3864C57.2948 18.3864 57.4231 18.3864 57.4745 18.5649L57.8852 19.5593C57.9047 19.6172 57.9047 19.6798 57.8852 19.7377C57.8852 19.7377 57.6285 20.0437 57.1664 20.2732C56.3483 20.5908 55.478 20.755 54.5996 20.7576C53.6697 20.7945 52.7578 20.4956 52.0327 19.9162C51.5662 19.4633 51.2085 18.9117 50.9863 18.3025C50.7641 17.6933 50.6831 17.0422 50.7492 16.3976C50.7193 15.2169 51.1413 14.0688 51.93 13.185C52.2763 12.7815 52.7105 12.4616 53.1997 12.2496C53.6889 12.0375 54.2203 11.9389 54.7536 11.9611C57.0638 11.8846 58.1932 13.3634 58.1932 16.4231ZM55.8317 15.3012C55.8611 14.7982 55.7547 14.2965 55.5236 13.8479C55.4055 13.6941 55.2477 13.575 55.0669 13.5032C54.8861 13.4314 54.6892 13.4095 54.4969 13.4399C54.2731 13.4289 54.0504 13.4774 53.8519 13.5805C53.6533 13.6836 53.4861 13.8376 53.3675 14.0264C53.1592 14.4216 53.0367 14.856 53.0081 15.3012H55.8317ZM67.9473 19.5338C67.9473 19.5338 67.8189 19.8397 67.5366 19.9927C66.7748 20.4862 65.8788 20.7354 64.9697 20.7066C64.2314 20.7522 63.4952 20.5896 62.8458 20.2378C62.1964 19.8859 61.6603 19.3591 61.2991 18.7179C60.6532 17.421 60.3527 15.9813 60.4264 14.5363C60.3027 12.9084 60.8075 11.2949 61.8381 10.0233C62.1999 9.60645 62.6496 9.27384 63.1553 9.0491C63.6611 8.82436 64.2104 8.713 64.7644 8.72294C65.6779 8.76299 66.564 9.04466 67.3312 9.53885C67.5623 9.71733 67.6906 9.84482 67.6906 9.94681C67.6906 10.0488 67.6906 10.0743 67.6906 10.0743L66.9719 11.2982C66.9605 11.3362 66.9366 11.3695 66.9041 11.3926C66.8715 11.4156 66.8322 11.4273 66.7922 11.4256C66.602 11.3431 66.4213 11.2405 66.2532 11.1197C65.8529 10.7982 65.356 10.6187 64.8414 10.6097C63.4809 10.6097 62.8392 11.7826 62.8392 14.1793C62.7569 15.4498 62.9951 16.7206 63.5323 17.8764C63.6808 18.1601 63.9124 18.3924 64.1965 18.5426C64.4806 18.6928 64.8039 18.7539 65.1237 18.7179C65.7702 18.713 66.3954 18.488 66.8949 18.0804C66.8949 18.0804 66.8949 18.0804 67.0746 18.0804C67.2542 18.0804 67.0746 18.0804 67.2286 18.2589L67.9473 19.4318V19.5338ZM72.465 20.1712C72.465 20.1712 72.311 20.4262 71.8746 20.4772C71.4939 20.6021 71.0947 20.6625 70.6938 20.6556C70.277 20.7036 69.8559 20.615 69.4945 20.4032C69.133 20.1915 68.8511 19.8683 68.6917 19.4828C68.5302 18.8068 68.4697 18.1109 68.512 17.4175V8.95242C68.5084 8.91685 68.5124 8.88094 68.5237 8.847C68.5349 8.81306 68.5533 8.78185 68.5775 8.7554C68.6017 8.72896 68.6312 8.70786 68.6641 8.69348C68.6971 8.67911 68.7327 8.67177 68.7687 8.67195L70.3601 8.36598H70.5912C70.5912 8.36598 70.7709 8.36598 70.7709 8.64645V17.29C70.7319 17.663 70.7319 18.0389 70.7709 18.4119C70.7834 18.511 70.8322 18.6021 70.9079 18.6679C70.9836 18.7337 71.081 18.7696 71.1815 18.7688C71.3775 18.7951 71.576 18.7951 71.7719 18.7688H71.9003H72.0286L72.388 20.1712H72.465ZM83.2458 12.828C83.2611 12.8865 83.2611 12.9479 83.2458 13.0065L82.7325 14.0774C82.7325 14.0774 82.6041 14.0774 82.5528 14.0774C82.5266 14.096 82.4952 14.1061 82.4629 14.1061C82.4307 14.1061 82.3993 14.096 82.3731 14.0774C81.9421 13.747 81.4262 13.5437 80.8843 13.4909C79.7036 13.4909 79.1645 14.4343 79.1645 16.3211C79.1645 18.2079 79.7549 18.8708 80.9613 18.8708C81.4643 18.8433 81.9511 18.6851 82.3731 18.4119C82.3993 18.3932 82.4307 18.3832 82.4629 18.3832C82.4952 18.3832 82.5266 18.3932 82.5528 18.4119L82.9635 19.4063C82.9635 19.4063 82.9635 19.4063 82.9635 19.5848C82.9635 19.7632 82.6555 19.9927 82.1164 20.1712C81.5747 20.3732 81.0009 20.4769 80.4223 20.4772C79.9108 20.5348 79.3929 20.4801 78.905 20.3171C78.4171 20.1541 77.9712 19.8867 77.5987 19.5338C76.9008 18.6494 76.5455 17.5456 76.5976 16.4231C76.5236 15.1666 76.9474 13.9312 77.7784 12.981C78.1443 12.5658 78.5997 12.2378 79.1108 12.0215C79.6218 11.8052 80.1754 11.7061 80.7303 11.7316C81.2896 11.7571 81.8425 11.86 82.3731 12.0376C82.9635 12.369 83.2715 12.5985 83.2715 12.828H83.2458ZM91.5882 19.6613C91.5882 19.6613 91.5882 19.6613 91.4085 19.8397L90.0737 20.6301C90.0464 20.6458 90.0154 20.6541 89.9839 20.6541C89.9523 20.6541 89.9214 20.6458 89.894 20.6301C89.894 20.6301 89.7657 20.6301 89.663 20.4772L86.3518 16.4231V20.0182C86.3518 20.0926 86.322 20.1639 86.2691 20.2165C86.2161 20.2691 86.1443 20.2987 86.0694 20.2987H84.4009C84.3638 20.3022 84.3264 20.2984 84.2908 20.2874C84.2552 20.2765 84.2221 20.2586 84.1935 20.2349C84.1648 20.2112 84.1412 20.1821 84.1239 20.1493C84.1067 20.1165 84.0961 20.0806 84.0929 20.0437V8.85043C84.0894 8.81357 84.0932 8.77638 84.1043 8.741C84.1153 8.70563 84.1332 8.67277 84.1571 8.64433C84.181 8.61588 84.2103 8.59241 84.2433 8.57527C84.2763 8.55813 84.3125 8.54766 84.3496 8.54446L86.1721 8.1875C86.3004 8.1875 86.3518 8.1875 86.3518 8.49347V15.1227L89.7657 11.8846C89.8064 11.8678 89.85 11.8591 89.894 11.8591C89.9381 11.8591 89.9817 11.8678 90.0224 11.8846H90.2534L91.2031 12.5985C91.2189 12.6257 91.2272 12.6564 91.2272 12.6878C91.2272 12.7191 91.2189 12.7499 91.2031 12.777C91.2196 12.8354 91.2196 12.8971 91.2031 12.9555L88.3539 15.5307L91.6138 19.2278L91.5882 19.6613ZM40.0711 34.9596C40.0711 35.0871 39.9427 35.2656 39.6604 35.444C38.8899 35.9156 37.9982 36.1548 37.0935 36.1325C36.3538 36.1874 35.6139 36.0289 34.9627 35.6761C34.3116 35.3233 33.7768 34.7912 33.4229 34.1437C32.7816 32.8096 32.4902 31.3361 32.5758 29.8601C32.4576 28.237 32.9517 26.6283 33.9619 25.3471C34.3295 24.9172 34.7912 24.5765 35.3117 24.3511C35.8323 24.1257 36.3979 24.0216 36.9651 24.0468C37.8825 24.0868 38.7709 24.378 39.532 24.8882C39.763 25.0412 39.8914 25.1687 39.8914 25.2961C39.8914 25.2961 39.8914 25.4236 39.8914 25.2961L39.2497 26.5455C39.2582 26.5693 39.2606 26.5948 39.2568 26.6198C39.253 26.6447 39.243 26.6683 39.2278 26.6885C39.2125 26.7087 39.1925 26.7249 39.1694 26.7355C39.1464 26.7461 39.121 26.7509 39.0956 26.7495L38.5823 26.469C38.1693 26.149 37.6677 25.9622 37.1448 25.9336C35.7844 25.9336 35.1427 27.1064 35.1427 29.5032C35.064 30.7843 35.3112 32.0645 35.8614 33.2258C36.0136 33.5047 36.2468 33.7317 36.5306 33.8772C36.8144 34.0227 37.1358 34.08 37.4529 34.0417C38.0579 34.0017 38.6339 33.7692 39.0956 33.3788H39.2753C39.2753 33.3788 39.2753 33.3788 39.455 33.5317L40.1481 34.7301C40.1481 34.7301 40.0967 34.8066 40.0967 34.8576L40.0711 34.9596ZM47.7717 31.6704C47.8034 32.794 47.4605 33.8966 46.7963 34.8066C46.4452 35.191 46.0112 35.4916 45.5267 35.6859C45.0422 35.8802 44.5197 35.9631 43.9984 35.9285C43.4669 35.945 42.9379 35.8489 42.4467 35.6467C41.9554 35.4445 41.5131 35.1407 41.1491 34.7556C40.4537 33.8211 40.1006 32.6786 40.1481 31.5175C40.1071 30.3964 40.4611 29.2963 41.1491 28.4068C41.506 27.9941 41.9524 27.6673 42.4548 27.4509C42.9573 27.2345 43.5026 27.1341 44.0497 27.1574C44.563 27.1269 45.0766 27.2119 45.5522 27.4062C46.0278 27.6005 46.4531 27.8989 46.7963 28.2793C47.4939 29.231 47.8385 30.3931 47.7717 31.5685V31.6704ZM45.4102 31.6704C45.4708 30.938 45.3473 30.202 45.0508 29.5287C44.9477 29.3285 44.7888 29.162 44.5931 29.049C44.3974 28.936 44.1732 28.8812 43.947 28.8912C43.7234 28.8762 43.5005 28.9291 43.308 29.043C43.1154 29.1569 42.9623 29.3263 42.8689 29.5287C42.5867 30.1793 42.4636 30.887 42.5096 31.594C42.4616 32.301 42.5848 33.0092 42.8689 33.6592C43.0453 33.9504 43.3293 34.1615 43.6603 34.2473C43.9914 34.3331 44.343 34.2867 44.6401 34.1182C44.8375 34.0064 45.0048 33.849 45.1278 33.6592C45.3643 33.0152 45.4606 32.3287 45.4102 31.6449V31.6704ZM56.0627 35.2401C56.0627 35.2401 56.0627 35.2401 55.883 35.4185L54.4969 35.9285H54.2402C54.0605 35.9285 53.8808 35.648 53.7525 35.1126C53.0276 35.695 52.1177 36.0023 51.1856 35.9795C50.7675 35.9829 50.3548 35.8849 49.9835 35.6938C49.6121 35.5027 49.2935 35.2244 49.0551 34.8831C48.5216 33.9246 48.2558 32.8418 48.2851 31.7469C48.2042 30.4989 48.5878 29.2648 49.3631 28.2793C49.6427 27.9586 49.9902 27.7032 50.3806 27.5313C50.7711 27.3594 51.195 27.2753 51.622 27.2849C52.2146 27.3072 52.7942 27.4642 53.3161 27.7439V24.3527C53.3211 24.2774 53.3518 24.2061 53.4031 24.1504C53.4545 24.0948 53.5234 24.0582 53.5985 24.0468L55.5236 23.6898C55.5236 23.6898 55.7033 23.6898 55.7033 23.9958V33.6847C55.7043 34.1768 55.8093 34.6633 56.0113 35.1126L56.0627 35.2401ZM53.4958 33.8377V29.2227C53.1109 29.0404 52.6902 28.9446 52.2637 28.9422C52.0254 28.9202 51.7859 28.969 51.5757 29.0825C51.3654 29.196 51.1939 29.3691 51.0829 29.5797C50.7983 30.2475 50.6752 30.9723 50.7236 31.6959C50.6977 32.414 50.802 33.1308 51.0316 33.8122C51.1204 34.0126 51.2689 34.1811 51.4571 34.2951C51.6452 34.409 51.864 34.463 52.084 34.4496C52.5823 34.3967 53.0458 34.171 53.3931 33.8122L53.4958 33.8377ZM63.9173 31.7724C63.9438 31.89 63.9438 32.0119 63.9173 32.1294C63.8141 32.2086 63.6883 32.2532 63.5579 32.2569H58.6552C58.6552 33.6592 59.3739 34.3732 60.606 34.3732C61.3145 34.3524 62.0085 34.1692 62.6339 33.8377C62.6697 33.8198 62.7093 33.8104 62.7494 33.8104C62.7895 33.8104 62.8291 33.8198 62.8649 33.8377C62.8649 33.8377 62.9932 33.8377 63.0446 34.0162L63.4553 35.0106C63.4689 35.0384 63.476 35.0689 63.476 35.0998C63.476 35.1307 63.4689 35.1613 63.4553 35.1891C63.4553 35.1891 63.2242 35.4695 62.7365 35.699C61.9669 35.9991 61.1503 36.1631 60.3237 36.1835C59.3928 36.2275 58.4785 35.9278 57.7568 35.342C57.2857 34.8915 56.9233 34.341 56.6966 33.7317C56.4699 33.1223 56.3848 32.47 56.4477 31.8234C56.3943 30.6569 56.7785 29.5122 57.5258 28.6108C57.8616 28.2067 58.286 27.884 58.7664 27.6675C59.2468 27.451 59.7707 27.3463 60.298 27.3614C62.6852 27.2339 63.8146 28.6873 63.8146 31.7469L63.9173 31.7724ZM61.6071 30.6506C61.6317 30.1479 61.5256 29.6474 61.2991 29.1972C61.1809 29.0455 61.0291 28.923 60.8555 28.8389C60.6819 28.7549 60.4911 28.7118 60.298 28.7128C60.0738 28.699 59.8501 28.7463 59.651 28.8497C59.452 28.953 59.2851 29.1085 59.1686 29.2992C58.9679 29.705 58.8542 30.1478 58.8349 30.5996H61.6071V30.6506ZM75.4939 12.1651H72.157C72.1199 12.1616 72.0824 12.1654 72.0468 12.1763C72.0112 12.1873 71.9781 12.2051 71.9495 12.2288C71.9208 12.2525 71.8972 12.2816 71.88 12.3144C71.8627 12.3473 71.8522 12.3832 71.8489 12.42V13.4144C71.8479 13.4875 71.8732 13.5585 71.9203 13.6146C71.9674 13.6707 72.0331 13.7082 72.1056 13.7204H73.4404V20.1202C73.4404 20.1946 73.4701 20.2659 73.5231 20.3185C73.576 20.3711 73.6479 20.4007 73.7227 20.4007H75.3912C75.4283 20.4042 75.4658 20.4003 75.5014 20.3894C75.537 20.3785 75.5701 20.3606 75.5987 20.3369C75.6273 20.3132 75.651 20.2841 75.6682 20.2513C75.6855 20.2185 75.696 20.1826 75.6992 20.1457V12.4965C75.7075 12.4534 75.7055 12.409 75.6934 12.3668C75.6813 12.3246 75.6593 12.2859 75.6294 12.2536C75.5994 12.2214 75.5623 12.1966 75.5209 12.1812C75.4795 12.1658 75.4351 12.1603 75.3912 12.1651H75.4939ZM74.5185 8.36598C74.3364 8.3626 74.1555 8.39488 73.986 8.46097C73.8166 8.52705 73.6619 8.62566 73.5308 8.75115C73.3997 8.87664 73.2947 9.02656 73.222 9.19234C73.1492 9.35812 73.11 9.53651 73.1067 9.71733C73.0788 9.99263 73.1618 10.2677 73.3377 10.4823L74.5185 9.71733L74.0564 11.0177C74.208 11.0566 74.367 11.0566 74.5185 11.0177C74.8793 11.0177 75.2253 10.8753 75.4805 10.6219C75.7356 10.3685 75.8789 10.0247 75.8789 9.66634C75.8789 9.30794 75.7356 8.96422 75.4805 8.71079C75.2253 8.45736 74.8793 8.31499 74.5185 8.31499V8.36598Z" fill="white"/>
<path d="M41.3288 14.5363C41.3288 18.6414 39.8657 20.6301 36.8881 20.6301C33.9106 20.6301 32.5758 18.6414 32.5758 14.5873C32.4873 13.7064 32.5781 12.8168 32.8427 11.9714C33.1073 11.1261 33.5402 10.3422 34.1159 9.66634C34.9081 8.95202 35.9469 8.56848 37.0165 8.59546C37.564 8.57255 38.1102 8.66524 38.6191 8.86742C39.1279 9.06959 39.5878 9.37665 39.9684 9.76833C41.0065 11.1326 41.492 12.8339 41.3288 14.5363ZM38.762 14.7148C38.7876 11.8846 38.1972 10.4313 36.9651 10.4313C35.733 10.4313 35.194 11.8336 35.194 14.6638C35.194 17.494 35.7844 18.8453 37.0165 18.8453C38.2486 18.8453 38.7876 17.4175 38.7876 14.6638L38.762 14.7148ZM49.6712 20.1202C49.6748 20.1558 49.6708 20.1917 49.6595 20.2256C49.6482 20.2596 49.6299 20.2908 49.6057 20.3172C49.5815 20.3437 49.552 20.3648 49.519 20.3791C49.4861 20.3935 49.4505 20.4009 49.4145 20.4007H47.7203C47.6845 20.4042 47.6484 20.4003 47.6142 20.3891C47.58 20.3779 47.5486 20.3597 47.522 20.3356C47.4954 20.3116 47.4741 20.2823 47.4597 20.2495C47.4452 20.2168 47.4378 20.1814 47.438 20.1457V15.0463C47.438 14.1284 47.0786 13.6439 46.4112 13.6439C45.8402 13.7068 45.3069 13.9582 44.8968 14.3578V20.1202C44.8968 20.1946 44.867 20.2659 44.8141 20.3185C44.7611 20.3711 44.6893 20.4007 44.6144 20.4007H42.9203C42.8845 20.4042 42.8483 20.4003 42.8142 20.3891C42.78 20.3779 42.7486 20.3597 42.722 20.3356C42.6953 20.3116 42.6741 20.2823 42.6596 20.2495C42.6451 20.2168 42.6378 20.1814 42.6379 20.1457V14.5363C42.648 13.9145 42.5255 13.2975 42.2786 12.726C42.2569 12.6685 42.2569 12.6051 42.2786 12.5475C42.2569 12.49 42.2569 12.4266 42.2786 12.369L43.8957 11.8336H44.0754C44.3064 11.8336 44.4861 12.2416 44.7171 13.0065C45.4199 12.3617 46.3284 11.9827 47.284 11.9356C48.7984 11.9356 49.5171 12.828 49.5171 14.4853L49.6712 20.1202ZM58.1932 16.4231C58.2181 16.5408 58.2181 16.6624 58.1932 16.7801C58.0932 16.8131 57.9851 16.8131 57.8852 16.7801H53.1108C53.1108 18.2079 53.8038 18.8963 55.0616 18.8963C55.7611 18.8932 56.449 18.718 57.0638 18.3864C57.1392 18.3644 57.2194 18.3644 57.2948 18.3864C57.2948 18.3864 57.4231 18.3864 57.4745 18.5649L57.8852 19.5593C57.9047 19.6172 57.9047 19.6798 57.8852 19.7377C57.8852 19.7377 57.6285 20.0437 57.1664 20.2732C56.3483 20.5908 55.478 20.755 54.5996 20.7576C53.6697 20.7945 52.7578 20.4956 52.0327 19.9162C51.5662 19.4633 51.2085 18.9117 50.9863 18.3025C50.7641 17.6933 50.6831 17.0422 50.7492 16.3976C50.7193 15.2169 51.1413 14.0688 51.93 13.185C52.2763 12.7815 52.7105 12.4616 53.1997 12.2496C53.6889 12.0375 54.2203 11.9389 54.7536 11.9611C57.0638 11.8846 58.1932 13.3634 58.1932 16.4231ZM55.8317 15.3012C55.8611 14.7982 55.7547 14.2965 55.5236 13.8479C55.4055 13.6941 55.2477 13.575 55.0669 13.5032C54.8861 13.4314 54.6892 13.4095 54.4969 13.4399C54.2731 13.4289 54.0504 13.4774 53.8519 13.5805C53.6533 13.6836 53.4861 13.8376 53.3675 14.0264C53.1592 14.4216 53.0367 14.856 53.0081 15.3012H55.8317ZM67.9473 19.5338C67.9473 19.5338 67.8189 19.8397 67.5366 19.9927C66.7748 20.4862 65.8788 20.7354 64.9697 20.7066C64.2314 20.7522 63.4952 20.5896 62.8458 20.2378C62.1964 19.8859 61.6603 19.3591 61.2991 18.7179C60.6532 17.421 60.3527 15.9813 60.4264 14.5363C60.3027 12.9084 60.8075 11.2949 61.8381 10.0233C62.1999 9.60645 62.6496 9.27384 63.1553 9.0491C63.6611 8.82436 64.2104 8.713 64.7644 8.72294C65.6779 8.76299 66.564 9.04466 67.3312 9.53885C67.5623 9.71733 67.6906 9.84482 67.6906 9.94681C67.6906 10.0488 67.6906 10.0743 67.6906 10.0743L66.9719 11.2982C66.9605 11.3362 66.9366 11.3695 66.9041 11.3926C66.8715 11.4156 66.8322 11.4273 66.7922 11.4256C66.602 11.3431 66.4213 11.2405 66.2532 11.1197C65.8529 10.7982 65.356 10.6187 64.8414 10.6097C63.4809 10.6097 62.8392 11.7826 62.8392 14.1793C62.7569 15.4498 62.9951 16.7206 63.5323 17.8764C63.6808 18.1601 63.9124 18.3924 64.1965 18.5426C64.4806 18.6928 64.8039 18.7539 65.1237 18.7179C65.7702 18.713 66.3954 18.488 66.8949 18.0804C66.8949 18.0804 66.8949 18.0804 67.0746 18.0804C67.2542 18.0804 67.0746 18.0804 67.2286 18.2589L67.9473 19.4318V19.5338ZM72.465 20.1712C72.465 20.1712 72.311 20.4262 71.8746 20.4772C71.4939 20.6021 71.0947 20.6625 70.6938 20.6556C70.277 20.7036 69.8559 20.615 69.4945 20.4032C69.133 20.1915 68.8511 19.8683 68.6917 19.4828C68.5302 18.8068 68.4697 18.1109 68.512 17.4175V8.95242C68.5084 8.91685 68.5124 8.88094 68.5237 8.847C68.5349 8.81306 68.5533 8.78185 68.5775 8.7554C68.6017 8.72896 68.6312 8.70786 68.6641 8.69348C68.6971 8.67911 68.7327 8.67177 68.7687 8.67195L70.3601 8.36598H70.5912C70.5912 8.36598 70.7709 8.36598 70.7709 8.64645V17.29C70.7319 17.663 70.7319 18.0389 70.7709 18.4119C70.7834 18.511 70.8322 18.6021 70.9079 18.6679C70.9836 18.7337 71.081 18.7696 71.1815 18.7688C71.3775 18.7951 71.576 18.7951 71.7719 18.7688H71.9003H72.0286L72.388 20.1712H72.465ZM83.2458 12.828C83.2611 12.8865 83.2611 12.9479 83.2458 13.0065L82.7325 14.0774C82.7325 14.0774 82.6041 14.0774 82.5528 14.0774C82.5266 14.096 82.4952 14.1061 82.4629 14.1061C82.4307 14.1061 82.3993 14.096 82.3731 14.0774C81.9421 13.747 81.4262 13.5437 80.8843 13.4909C79.7036 13.4909 79.1645 14.4343 79.1645 16.3211C79.1645 18.2079 79.7549 18.8708 80.9613 18.8708C81.4643 18.8433 81.9511 18.6851 82.3731 18.4119C82.3993 18.3932 82.4307 18.3832 82.4629 18.3832C82.4952 18.3832 82.5266 18.3932 82.5528 18.4119L82.9635 19.4063C82.9635 19.4063 82.9635 19.4063 82.9635 19.5848C82.9635 19.7632 82.6555 19.9927 82.1164 20.1712C81.5747 20.3732 81.0009 20.4769 80.4223 20.4772C79.9108 20.5348 79.3929 20.4801 78.905 20.3171C78.4171 20.1541 77.9712 19.8867 77.5987 19.5338C76.9008 18.6494 76.5455 17.5456 76.5976 16.4231C76.5236 15.1666 76.9474 13.9312 77.7784 12.981C78.1443 12.5658 78.5997 12.2378 79.1108 12.0215C79.6218 11.8052 80.1754 11.7061 80.7303 11.7316C81.2896 11.7571 81.8425 11.86 82.3731 12.0376C82.9635 12.369 83.2715 12.5985 83.2715 12.828H83.2458ZM91.5882 19.6613C91.5882 19.6613 91.5882 19.6613 91.4085 19.8397L90.0737 20.6301C90.0464 20.6458 90.0154 20.6541 89.9839 20.6541C89.9523 20.6541 89.9214 20.6458 89.894 20.6301C89.894 20.6301 89.7657 20.6301 89.663 20.4772L86.3518 16.4231V20.0182C86.3518 20.0926 86.322 20.1639 86.2691 20.2165C86.2161 20.2691 86.1443 20.2987 86.0694 20.2987H84.4009C84.3638 20.3022 84.3264 20.2984 84.2908 20.2874C84.2552 20.2765 84.2221 20.2586 84.1935 20.2349C84.1648 20.2112 84.1412 20.1821 84.1239 20.1493C84.1067 20.1165 84.0961 20.0806 84.0929 20.0437V8.85043C84.0894 8.81357 84.0932 8.77638 84.1043 8.741C84.1153 8.70563 84.1332 8.67277 84.1571 8.64433C84.181 8.61588 84.2103 8.59241 84.2433 8.57527C84.2763 8.55813 84.3125 8.54766 84.3496 8.54446L86.1721 8.1875C86.3004 8.1875 86.3518 8.1875 86.3518 8.49347V15.1227L89.7657 11.8846C89.8064 11.8678 89.85 11.8591 89.894 11.8591C89.9381 11.8591 89.9817 11.8678 90.0224 11.8846H90.2534L91.2031 12.5985C91.2189 12.6257 91.2272 12.6564 91.2272 12.6878C91.2272 12.7191 91.2189 12.7499 91.2031 12.777C91.2196 12.8354 91.2196 12.8971 91.2031 12.9555L88.3539 15.5307L91.6138 19.2278L91.5882 19.6613ZM40.0711 34.9596C40.0711 35.0871 39.9427 35.2656 39.6604 35.444C38.8899 35.9156 37.9982 36.1548 37.0935 36.1325C36.3538 36.1874 35.6139 36.0289 34.9627 35.6761C34.3116 35.3233 33.7768 34.7912 33.4229 34.1437C32.7816 32.8096 32.4902 31.3361 32.5758 29.8601C32.4576 28.237 32.9517 26.6283 33.9619 25.3471C34.3295 24.9172 34.7912 24.5765 35.3117 24.3511C35.8323 24.1257 36.3979 24.0216 36.9651 24.0468C37.8825 24.0868 38.7709 24.378 39.532 24.8882C39.763 25.0412 39.8914 25.1687 39.8914 25.2961C39.8914 25.2961 39.8914 25.4236 39.8914 25.2961L39.2497 26.5455C39.2582 26.5693 39.2606 26.5948 39.2568 26.6198C39.253 26.6447 39.243 26.6683 39.2278 26.6885C39.2125 26.7087 39.1925 26.7249 39.1694 26.7355C39.1464 26.7461 39.121 26.7509 39.0956 26.7495L38.5823 26.469C38.1693 26.149 37.6677 25.9622 37.1448 25.9336C35.7844 25.9336 35.1427 27.1064 35.1427 29.5032C35.064 30.7843 35.3112 32.0645 35.8614 33.2258C36.0136 33.5047 36.2468 33.7317 36.5306 33.8772C36.8144 34.0227 37.1358 34.08 37.4529 34.0417C38.0579 34.0017 38.6339 33.7692 39.0956 33.3788H39.2753C39.2753 33.3788 39.2753 33.3788 39.455 33.5317L40.1481 34.7301C40.1481 34.7301 40.0967 34.8066 40.0967 34.8576L40.0711 34.9596ZM47.7717 31.6704C47.8034 32.794 47.4605 33.8966 46.7963 34.8066C46.4452 35.191 46.0112 35.4916 45.5267 35.6859C45.0422 35.8802 44.5197 35.9631 43.9984 35.9285C43.4669 35.945 42.9379 35.8489 42.4467 35.6467C41.9554 35.4445 41.5131 35.1407 41.1491 34.7556C40.4537 33.8211 40.1006 32.6786 40.1481 31.5175C40.1071 30.3964 40.4611 29.2963 41.1491 28.4068C41.506 27.9941 41.9524 27.6673 42.4548 27.4509C42.9573 27.2345 43.5026 27.1341 44.0497 27.1574C44.563 27.1269 45.0766 27.2119 45.5522 27.4062C46.0278 27.6005 46.4531 27.8989 46.7963 28.2793C47.4939 29.231 47.8385 30.3931 47.7717 31.5685V31.6704ZM45.4102 31.6704C45.4708 30.938 45.3473 30.202 45.0508 29.5287C44.9477 29.3285 44.7888 29.162 44.5931 29.049C44.3974 28.936 44.1732 28.8812 43.947 28.8912C43.7234 28.8762 43.5005 28.9291 43.308 29.043C43.1154 29.1569 42.9623 29.3263 42.8689 29.5287C42.5867 30.1793 42.4636 30.887 42.5096 31.594C42.4616 32.301 42.5848 33.0092 42.8689 33.6592C43.0453 33.9504 43.3293 34.1615 43.6603 34.2473C43.9914 34.3331 44.343 34.2867 44.6401 34.1182C44.8375 34.0064 45.0048 33.849 45.1278 33.6592C45.3643 33.0152 45.4606 32.3287 45.4102 31.6449V31.6704ZM56.0627 35.2401C56.0627 35.2401 56.0627 35.2401 55.883 35.4185L54.4969 35.9285H54.2402C54.0605 35.9285 53.8808 35.648 53.7525 35.1126C53.0276 35.695 52.1177 36.0023 51.1856 35.9795C50.7675 35.9829 50.3548 35.8849 49.9835 35.6938C49.6121 35.5027 49.2935 35.2244 49.0551 34.8831C48.5216 33.9246 48.2558 32.8418 48.2851 31.7469C48.2042 30.4989 48.5878 29.2648 49.3631 28.2793C49.6427 27.9586 49.9902 27.7032 50.3806 27.5313C50.7711 27.3594 51.195 27.2753 51.622 27.2849C52.2146 27.3072 52.7942 27.4642 53.3161 27.7439V24.3527C53.3211 24.2774 53.3518 24.2061 53.4031 24.1504C53.4545 24.0948 53.5234 24.0582 53.5985 24.0468L55.5236 23.6898C55.5236 23.6898 55.7033 23.6898 55.7033 23.9958V33.6847C55.7043 34.1768 55.8093 34.6633 56.0113 35.1126L56.0627 35.2401ZM53.4958 33.8377V29.2227C53.1109 29.0404 52.6902 28.9446 52.2637 28.9422C52.0254 28.9202 51.7859 28.969 51.5757 29.0825C51.3654 29.196 51.1939 29.3691 51.0829 29.5797C50.7983 30.2475 50.6752 30.9723 50.7236 31.6959C50.6977 32.414 50.802 33.1308 51.0316 33.8122C51.1204 34.0126 51.2689 34.1811 51.4571 34.2951C51.6452 34.409 51.864 34.463 52.084 34.4496C52.5823 34.3967 53.0458 34.171 53.3931 33.8122L53.4958 33.8377ZM63.9173 31.7724C63.9438 31.89 63.9438 32.0119 63.9173 32.1294C63.8141 32.2086 63.6883 32.2532 63.5579 32.2569H58.6552C58.6552 33.6592 59.3739 34.3732 60.606 34.3732C61.3145 34.3524 62.0085 34.1692 62.6339 33.8377C62.6697 33.8198 62.7093 33.8104 62.7494 33.8104C62.7895 33.8104 62.8291 33.8198 62.8649 33.8377C62.8649 33.8377 62.9932 33.8377 63.0446 34.0162L63.4553 35.0106C63.4689 35.0384 63.476 35.0689 63.476 35.0998C63.476 35.1307 63.4689 35.1613 63.4553 35.1891C63.4553 35.1891 63.2242 35.4695 62.7365 35.699C61.9669 35.9991 61.1503 36.1631 60.3237 36.1835C59.3928 36.2275 58.4785 35.9278 57.7568 35.342C57.2857 34.8915 56.9233 34.341 56.6966 33.7317C56.4699 33.1223 56.3848 32.47 56.4477 31.8234C56.3943 30.6569 56.7785 29.5122 57.5258 28.6108C57.8616 28.2067 58.286 27.884 58.7664 27.6675C59.2468 27.451 59.7707 27.3463 60.298 27.3614C62.6852 27.2339 63.8146 28.6873 63.8146 31.7469L63.9173 31.7724ZM61.6071 30.6506C61.6317 30.1479 61.5256 29.6474 61.2991 29.1972C61.1809 29.0455 61.0291 28.923 60.8555 28.8389C60.6819 28.7549 60.4911 28.7118 60.298 28.7128C60.0738 28.699 59.8501 28.7463 59.651 28.8497C59.452 28.953 59.2851 29.1085 59.1686 29.2992C58.9679 29.705 58.8542 30.1478 58.8349 30.5996H61.6071V30.6506ZM75.4939 12.1651H72.157C72.1199 12.1616 72.0824 12.1654 72.0468 12.1763C72.0112 12.1873 71.9781 12.2051 71.9495 12.2288C71.9208 12.2525 71.8972 12.2816 71.88 12.3144C71.8627 12.3473 71.8522 12.3832 71.8489 12.42V13.4144C71.8479 13.4875 71.8732 13.5585 71.9203 13.6146C71.9674 13.6707 72.0331 13.7082 72.1056 13.7204H73.4404V20.1202C73.4404 20.1946 73.4701 20.2659 73.5231 20.3185C73.576 20.3711 73.6479 20.4007 73.7227 20.4007H75.3912C75.4283 20.4042 75.4658 20.4003 75.5014 20.3894C75.537 20.3785 75.5701 20.3606 75.5987 20.3369C75.6273 20.3132 75.651 20.2841 75.6682 20.2513C75.6855 20.2185 75.696 20.1826 75.6992 20.1457V12.4965C75.7075 12.4534 75.7055 12.409 75.6934 12.3668C75.6813 12.3246 75.6593 12.2859 75.6294 12.2536C75.5994 12.2214 75.5623 12.1966 75.5209 12.1812C75.4795 12.1658 75.4351 12.1603 75.3912 12.1651H75.4939ZM74.5185 8.36598C74.3364 8.3626 74.1555 8.39488 73.986 8.46097C73.8166 8.52705 73.6619 8.62566 73.5308 8.75115C73.3997 8.87664 73.2947 9.02656 73.222 9.19234C73.1492 9.35812 73.11 9.53651 73.1067 9.71733C73.0788 9.99263 73.1618 10.2677 73.3377 10.4823L74.5185 9.71733L74.0564 11.0177C74.208 11.0566 74.367 11.0566 74.5185 11.0177C74.8793 11.0177 75.2253 10.8753 75.4805 10.6219C75.7356 10.3685 75.8789 10.0247 75.8789 9.66634C75.8789 9.30794 75.7356 8.96422 75.4805 8.71079C75.2253 8.45736 74.8793 8.31499 74.5185 8.31499V8.36598Z" fill="white"/>
<defs>
<linearGradient id="paint0_linear_938_12892" x1="-4.74773" y1="34.7486" x2="-1.33773" y2="44.3964" gradientUnits="userSpaceOnUse">
<stop stop-color="#231F20"/>
<stop offset="1" stop-color="#FDB728"/>
</linearGradient>
<linearGradient id="paint1_linear_938_12892" x1="24.348" y1="1.17263" x2="35.9202" y2="27.9311" gradientUnits="userSpaceOnUse">
<stop stop-color="#5E7B9D" stop-opacity="0"/>
<stop offset="1" stop-color="#5E7B9D"/>
</linearGradient>
<clipPath id="clip0_938_12892">
<rect width="26.656" height="39.6878" fill="white"/>
</clipPath>
</defs>
</svg>
