<svg width="151" height="74" viewBox="0 0 151 74" fill="none" xmlns="http://www.w3.org/2000/svg">
<path d="M39.9984 35.4255L39.9436 44.3092L30.9494 36.1032C24.4231 30.1686 21.6627 27.7691 20.9132 27.3844C19.4325 26.6334 17.2753 26.5235 16.0871 27.1463C15.6118 27.3844 15.0268 27.8973 14.716 28.3552L14.1676 29.1611L14.1127 44.071L14.0762 58.9809H18.6464H23.2166L23.2532 50.1156L23.308 41.2686L32.4119 49.5661C42.4115 58.6879 42.7406 58.926 45.0257 59.1092C47.0366 59.274 48.3345 58.578 48.9378 57.0027C49.2486 56.1968 49.2669 55.226 49.2669 41.3968V26.6517L44.6601 26.5968L40.035 26.5601L39.9984 35.4255Z" fill="white"/>
<path d="M57.0728 30.7725L54.1296 34.9854H64.4949C75.6828 34.9854 76.3043 35.0404 78.37 35.9745C79.5949 36.5424 81.4961 38.4107 82.0445 39.6013C82.9585 41.5978 82.9403 44.3087 81.9897 46.2686C81.4047 47.4592 79.7411 49.0344 78.4066 49.6755C76.7248 50.4631 75.8656 50.5547 69.4673 50.5547H63.4346V44.6933V38.832H58.773H54.1113V48.9062V58.9805H64.7325C76.6334 58.9805 77.8582 58.8889 80.9294 57.7899C84.8963 56.3612 88.2234 53.5587 90.1064 50.0052C91.8613 46.7082 92.3366 42.074 91.3312 38.1542C89.9784 32.9339 85.4447 28.7577 79.5583 27.2924C77.2001 26.7062 74.6773 26.5597 67.1822 26.5597H60.016L57.0728 30.7725Z" fill="white"/>
<path d="M112.244 26.7245C110.215 27.3839 108.698 28.7027 107.071 31.1755C106.321 32.3112 101.952 38.9235 97.3454 45.8839C92.7386 52.826 88.9362 58.6324 88.8997 58.7423C88.8265 58.9255 89.9965 58.9805 94.457 58.9805H100.106L106.486 49.4008C109.996 44.1438 112.994 39.6562 113.177 39.4364C113.469 39.0334 113.542 39.125 117.253 44.6933C119.319 47.8255 121.019 50.4082 121.019 50.4631C121.019 50.5181 118.259 50.5547 114.895 50.5547H108.771L106.029 54.6943C104.512 56.9839 103.305 58.8706 103.342 58.9072C103.378 58.9438 111.202 58.9622 120.727 58.9438L138.039 58.8889L128.642 44.327C118.643 28.7943 118.222 28.2265 116.175 27.2191C115.023 26.6513 113.158 26.4131 112.244 26.7245Z" fill="white"/>
</svg>
