<svg width="199" height="31" viewBox="0 0 199 31" fill="none" xmlns="http://www.w3.org/2000/svg">
<path d="M7.98006 10.1C7.87904 10.45 7.87904 13.6 7.98006 17.1L8.18209 23.5H12.1722C16.5664 23.5 19.2938 22.65 20.1524 21.1C21.011 19.55 20.809 18.55 19.4958 17.25C18.4351 16.2 18.3846 15.95 18.9907 15.45C19.4958 15.05 19.6978 14.15 19.5968 13.05C19.4958 11.55 19.1422 11.1 17.6775 10.4C15.5057 9.3 8.2831 9.1 7.98006 10.1ZM16.5664 13.2C16.8694 14.55 15.3542 15.5 13.0308 15.5C11.162 15.5 11.1115 15.45 11.1115 13.7V11.95L13.7379 12.1C15.9098 12.2 16.4653 12.45 16.5664 13.2ZM16.8694 18.3C18.5362 19.9 17.324 21 13.7884 21H11.1115V19.25V17.5H13.5864C15.2026 17.5 16.3643 17.8 16.8694 18.3Z" fill="white"/>
<path d="M30.3047 16.5V23.5H35.3554H40.4062V22.25C40.4062 21.05 40.3052 21 36.8707 21H33.3351V15.25V9.5H31.8199H30.3047V16.5Z" fill="white"/>
<path d="M52.1239 10.5C45.76 14.35 48.5379 23.5 56.0635 23.5C60.4577 23.5 63.6397 20.5 63.6397 16.3C63.6397 10.95 56.9726 7.6 52.1239 10.5ZM58.2353 12.55C58.9424 12.85 59.7506 13.65 60.0536 14.35C61.6193 17.7 59.498 21 55.811 21C53.9927 21 52.0229 19.05 51.6693 16.9C51.4168 15.3 51.6188 14.85 52.932 13.5C54.5483 11.9 56.1645 11.6 58.2353 12.55Z" fill="white"/>
<path d="M76.4188 10.2998C71.5196 12.6998 71.5701 20.3998 76.4693 22.6998C78.8432 23.7998 82.2272 23.6998 84.298 22.4498L86.0153 21.4498L84.9546 20.3998C83.9949 19.4498 83.8939 19.4498 82.7828 20.1998C79.8533 22.1998 75.7622 20.0498 75.7622 16.4998C75.7622 12.9498 80.4089 10.5498 82.9343 12.8498C83.8434 13.6498 83.9444 13.6498 84.9546 12.6498L86.0153 11.5498L84.298 10.5498C82.2272 9.2998 78.7422 9.1998 76.4188 10.2998Z" fill="white"/>
<path d="M95.459 16.5V23.5H96.9742C98.3884 23.5 98.4894 23.4 98.4894 21.6C98.4894 20.35 98.843 19.35 99.4491 18.8C100.308 18 100.459 18.1 102.732 20.75C104.803 23.1 105.358 23.5 106.874 23.5H108.641L106.217 20.5C102.075 15.35 102.176 16.05 105.358 12.6L108.187 9.5H106.47C105.055 9.45 104.348 9.95 101.671 12.85L98.5399 16.25L98.4894 12.85V9.5H96.9742H95.459V16.5Z" fill="white"/>
<path d="M116.673 10.7498C116.673 11.8998 116.825 11.9998 119.198 11.9998H121.774L121.623 16.3498L121.471 20.7498L120.057 20.8998C119.249 20.9998 118.289 20.7998 117.885 20.4498C117.279 19.9498 116.976 19.9998 116.269 20.6998C115.461 21.4998 115.461 21.5998 116.623 22.5498C118.39 23.9998 121.926 23.8498 123.492 22.2498C124.704 21.0998 124.754 20.7498 124.754 15.2498V9.49984H120.714C116.724 9.49984 116.673 9.49984 116.673 10.7498Z" fill="white"/>
<path d="M137.128 14.85C135.815 17.85 134.401 21 134.047 21.85L133.34 23.5H134.906C136.168 23.5 136.572 23.2 137.027 22C137.582 20.55 137.683 20.5 141.068 20.5C144.452 20.5 144.502 20.55 145.007 22C145.462 23.25 145.815 23.5 147.229 23.5H148.896L145.815 16.5C142.785 9.7 142.633 9.55 141.118 9.5C139.603 9.5 139.451 9.7 137.128 14.85ZM141.32 17.9C140.209 18 139.199 17.95 139.098 17.85C138.946 17.75 139.35 16.55 139.956 15.2L141.068 12.75L142.179 15.25L143.29 17.75L141.32 17.9Z" fill="white"/>
<path d="M157.584 16.5V23.5H159.099H160.564L160.715 19.15L160.867 14.8L164.403 19.15C167.281 22.7 168.191 23.5 169.352 23.5H170.716V16.5V9.5H169.201H167.686V13.5C167.686 15.7 167.483 17.5 167.231 17.5C166.978 17.5 165.362 15.7 163.594 13.5C160.968 10.3 160.109 9.55 158.998 9.5H157.584V16.5Z" fill="white"/>
<path d="M181.322 16.5V23.5H186.626H191.929V22.25C191.929 21.05 191.828 21 188.141 21H184.353V19.25V17.5H187.686C190.818 17.5 190.969 17.45 190.818 16.35C190.666 15.35 190.414 15.25 187.484 15.25H184.353V13.6V12H187.888C191.323 12 191.424 11.95 191.424 10.75V9.5H186.373H181.322V16.5Z" fill="white"/>
</svg>
